<svg width="122" height="107" viewBox="0 0 122 107" fill="none" xmlns="http://www.w3.org/2000/svg">
<path d="M1.34399 32.608C1.34399 29.824 1.90399 27.392 3.02399 25.312C4.17599 23.232 5.75999 21.632 7.77599 20.512C9.82399 19.392 12.16 18.832 14.784 18.832C18.144 18.832 20.944 19.712 23.184 21.472C24.8575 22.7683 26.1056 24.4553 26.9284 26.533C27.3989 27.7209 26.4379 28.912 25.1602 28.912H20.3185C19.4747 28.912 18.7598 28.3549 18.29 27.654C17.4796 26.4446 16.2629 25.84 14.64 25.84C13.136 25.84 11.936 26.432 11.04 27.616C10.144 28.768 9.69599 30.432 9.69599 32.608C9.69599 34.784 10.144 36.464 11.04 37.648C11.936 38.8 13.136 39.376 14.64 39.376C16.2629 39.376 17.4796 38.7713 18.29 37.562C18.7598 36.861 19.4747 36.304 20.3185 36.304H25.1492C26.4305 36.304 27.3915 37.5013 26.9098 38.6885C26.0868 40.7168 24.8449 42.386 23.184 43.696C20.912 45.488 18.112 46.384 14.784 46.384C12.16 46.384 9.82399 45.824 7.77599 44.704C5.75999 43.584 4.17599 41.984 3.02399 39.904C1.90399 37.824 1.34399 35.392 1.34399 32.608ZM44.2305 46.384C41.6065 46.384 39.2385 45.824 37.1265 44.704C35.0465 43.584 33.3985 41.984 32.1825 39.904C30.9985 37.824 30.4065 35.392 30.4065 32.608C30.4065 29.856 31.0145 27.44 32.2305 25.36C33.4465 23.248 35.1105 21.632 37.2225 20.512C39.3345 19.392 41.7025 18.832 44.3265 18.832C46.9505 18.832 49.3185 19.392 51.4305 20.512C53.5425 21.632 55.2065 23.248 56.4225 25.36C57.6385 27.44 58.2465 29.856 58.2465 32.608C58.2465 35.36 57.6225 37.792 56.3745 39.904C55.1585 41.984 53.4785 43.584 51.3345 44.704C49.2225 45.824 46.8545 46.384 44.2305 46.384ZM44.2305 39.28C45.7985 39.28 47.1265 38.704 48.2145 37.552C49.3345 36.4 49.8945 34.752 49.8945 32.608C49.8945 30.464 49.3505 28.816 48.2625 27.664C47.2065 26.512 45.8945 25.936 44.3265 25.936C42.7265 25.936 41.3985 26.512 40.3425 27.664C39.2865 28.784 38.7585 30.432 38.7585 32.608C38.7585 34.752 39.2705 36.4 40.2945 37.552C41.3505 38.704 42.6625 39.28 44.2305 39.28ZM60.969 32.56C60.969 29.808 61.481 27.392 62.505 25.312C63.561 23.232 64.985 21.632 66.777 20.512C68.569 19.392 70.569 18.832 72.777 18.832C74.537 18.832 76.137 19.2 77.577 19.936C79.049 20.672 80.201 21.664 81.033 22.912V12.48C81.033 11.3754 81.9284 10.48 83.033 10.48H87.241C88.3456 10.48 89.241 11.3754 89.241 12.48V44C89.241 45.1046 88.3456 46 87.241 46H83.033C81.9284 46 81.033 45.1046 81.033 44V42.16C80.265 43.44 79.161 44.464 77.721 45.232C76.313 46 74.665 46.384 72.777 46.384C70.569 46.384 68.569 45.824 66.777 44.704C64.985 43.552 63.561 41.936 62.505 39.856C61.481 37.744 60.969 35.312 60.969 32.56ZM81.033 32.608C81.033 30.56 80.457 28.944 79.305 27.76C78.185 26.576 76.809 25.984 75.177 25.984C73.545 25.984 72.153 26.576 71.001 27.76C69.881 28.912 69.321 30.512 69.321 32.56C69.321 34.608 69.881 36.24 71.001 37.456C72.153 38.64 73.545 39.232 75.177 39.232C76.809 39.232 78.185 38.64 79.305 37.456C80.457 36.272 81.033 34.656 81.033 32.608ZM120.427 32.176C120.427 32.6672 120.407 33.1715 120.368 33.6888C120.33 34.1953 119.9 34.576 119.392 34.576H103.867C102.702 34.576 101.735 35.5948 102.157 36.6804C102.424 37.3655 102.802 37.944 103.291 38.416C104.251 39.28 105.419 39.712 106.795 39.712C108.358 39.712 109.558 39.2087 110.394 38.2023C110.892 37.6029 111.566 37.12 112.345 37.12H117.23C118.535 37.12 119.493 38.3607 118.907 39.5263C118.49 40.356 117.972 41.1379 117.355 41.872C116.203 43.28 114.747 44.384 112.987 45.184C111.227 45.984 109.259 46.384 107.083 46.384C104.459 46.384 102.123 45.824 100.075 44.704C98.0271 43.584 96.4271 41.984 95.2751 39.904C94.1231 37.824 93.5471 35.392 93.5471 32.608C93.5471 29.824 94.1071 27.392 95.2271 25.312C96.3791 23.232 97.9791 21.632 100.027 20.512C102.075 19.392 104.427 18.832 107.083 18.832C109.675 18.832 111.979 19.376 113.995 20.464C116.011 21.552 117.579 23.104 118.699 25.12C119.851 27.136 120.427 29.488 120.427 32.176ZM110.027 30.016C111.132 30.016 112.094 29.0769 111.644 28.0679C111.404 27.5297 111.052 27.059 110.587 26.656C109.627 25.824 108.427 25.408 106.987 25.408C105.611 25.408 104.443 25.808 103.483 26.608C103.086 26.9504 102.753 27.3544 102.485 27.82C101.874 28.881 102.858 30.016 104.082 30.016H110.027Z" fill="#1C2033"/>
<path d="M34.4805 98.5774C34.2098 97.7582 33.4443 97.2049 32.5815 97.2049H18.5268C17.664 97.2049 16.8984 97.7582 16.6277 98.5774L14.959 103.627C14.6883 104.447 13.9228 105 13.06 105H3.40006C2.01146 105 1.04543 103.62 1.52102 102.315L17.4831 58.528C17.7709 57.7384 18.5217 57.2129 19.3621 57.2129H31.8798C32.7212 57.2129 33.4726 57.7395 33.7597 58.5303L49.6598 102.317C50.1333 103.622 49.1674 105 47.7799 105H38.0483C37.1855 105 36.4199 104.447 36.1492 103.627L34.4805 98.5774ZM27.9308 87.0374C29.2959 87.0374 30.2599 85.7 29.8282 84.405L27.4641 77.3127C26.855 75.4855 24.2687 75.4906 23.6669 77.3202L21.3339 84.4125C20.9083 85.7061 21.8719 87.0374 23.2337 87.0374H27.9308ZM61.6745 63.449C59.3247 63.449 57.4268 62.8163 55.9808 61.551C54.5799 60.2406 53.8795 58.6138 53.8795 56.6707C53.8795 54.6824 54.5799 53.033 55.9808 51.7225C57.4268 50.412 59.3247 49.7568 61.6745 49.7568C63.9791 49.7568 65.8319 50.412 67.2327 51.7225C68.6788 53.033 69.4018 54.6824 69.4018 56.6707C69.4018 58.6138 68.6788 60.2406 67.2327 61.551C65.8319 62.8163 63.9791 63.449 61.6745 63.449ZM66.2495 66.9737C67.354 66.9737 68.2495 67.8692 68.2495 68.9737V103C68.2495 104.105 67.354 105 66.2495 105H56.964C55.8594 105 54.964 104.105 54.964 103V68.9737C54.964 67.8692 55.8594 66.9737 56.964 66.9737H66.2495ZM94.7266 57.2129C99.7426 57.2129 104.126 58.2297 107.877 60.2632C111.672 62.2515 114.587 65.0532 116.621 68.6682C118.654 72.2833 119.671 76.4181 119.671 81.0725C119.671 85.6818 118.631 89.7939 116.553 93.409C114.519 97.0241 111.605 99.871 107.809 101.95C104.058 103.983 99.6974 105 94.7266 105H77.8152C76.7106 105 75.8152 104.105 75.8152 103V59.2129C75.8152 58.1084 76.7106 57.2129 77.8152 57.2129H94.7266ZM93.7099 93.2735C97.5961 93.2735 100.646 92.2115 102.861 90.0877C105.075 87.9638 106.182 84.9587 106.182 81.0725C106.182 77.1411 105.075 74.1135 102.861 71.9896C100.646 69.8206 97.5961 68.736 93.7099 68.736H91.1007C89.9961 68.736 89.1007 69.6315 89.1007 70.736V91.2735C89.1007 92.3781 89.9961 93.2735 91.1007 93.2735H93.7099Z" fill="#1C2033"/>
</svg>
