<svg width="1264" height="788" viewBox="0 0 1264 788" fill="none" xmlns="http://www.w3.org/2000/svg">
<path d="M292.534 394.686C319.253 363.907 299.919 315.806 259.331 312.08L206.813 307.259C155.81 302.576 123.482 250.363 142.026 202.621L162.077 150.996C170.439 129.466 184.896 110.841 203.678 97.3984L247.902 65.7474C296.844 30.7198 355.153 11.1501 415.317 9.55989L699.542 2.04734C750.705 0.695016 801.652 9.17398 849.619 27.0242L994.446 80.9196C1009.76 86.6201 1024.12 94.6371 1037 104.691L1048.73 113.838C1080.14 138.343 1098.5 175.958 1098.5 215.796V225.254C1098.5 243.885 1093.14 262.123 1083.06 277.793L1081.8 279.764C1048.83 331.018 1071.81 399.616 1129 420.669V420.669L1140.46 424.158C1212.73 446.166 1260.18 515.234 1254.8 590.594V590.594C1250.66 648.561 1215.77 699.864 1163.38 725.02L1102.76 754.129C1065.85 771.854 1025.48 781.199 984.53 781.495L200.142 787.17C155.468 787.493 111.989 772.752 76.7224 745.327L60.455 732.676C22.3109 703.013 0 657.399 0 609.078V609.078C0 541.682 43.128 481.848 107.067 460.538L174.893 437.932L269.064 409.828C278.166 407.111 286.307 401.859 292.534 394.686V394.686Z" fill="#8C9DDE"/>
<path d="M346.539 289.669C328.603 289.669 311.09 284.223 296.318 274.052L282.657 264.646C240.19 235.406 238.3 173.357 278.907 141.586V141.586C288.903 133.765 300.692 128.558 313.206 126.437L514.407 92.3334C525.45 90.4617 536.63 89.5209 547.83 89.5209L645.014 89.5209C672.703 89.5209 700.09 95.2703 725.442 106.405L861.155 166.013C881.52 174.958 904.632 175.318 925.266 167.012V167.012C982.906 143.811 1044.58 190.11 1038.39 251.936L1035.74 278.426C1033.66 299.216 1023.83 318.463 1008.22 332.347L997.231 342.12C982.198 355.489 975.28 375.765 979.007 395.534V395.534C983.74 420.638 1004.52 439.573 1029.96 441.954L1067.26 445.446C1123.38 450.699 1165.8 498.578 1164.27 554.921L1163.96 566.123C1162.76 610.32 1137.14 650.204 1097.46 669.69L1000.7 717.197C973.264 730.666 943.11 737.669 912.55 737.669H317.244C281.819 737.669 247.13 727.556 217.254 708.52L199.001 696.89C156.75 669.968 131.17 623.337 131.17 573.238V538.89C131.17 524.314 136.632 510.267 146.478 499.519V499.519C155.851 489.289 168.566 482.738 182.337 481.045L280.652 468.954C317.059 464.476 348.753 441.94 364.937 409.022L394.409 349.075C398.5 340.754 406.645 335.177 415.883 334.372L490.613 327.863C513.74 325.848 514.082 292.152 491 289.669V289.669H346.539Z" fill="#BCCFE8"/>
<path d="M401.931 385.518C410.448 362.806 431.803 347.456 456.046 346.621L528.079 344.14C554.565 343.228 574.766 320.119 572.129 293.748V293.748C569.785 270.307 550.059 252.455 526.501 252.455H335.516C311.035 252.455 289.009 237.582 279.862 214.873L277.007 207.786C264.398 176.483 280.075 140.943 311.694 129.151L428.858 85.4517C435.565 82.95 442.666 81.6688 449.825 81.6688H768.22C775.999 81.6688 783.704 83.1814 790.905 86.1224L982.565 164.395C1006.18 174.04 1021.12 197.564 1019.8 223.041L1017.09 275.412C1016.38 289.06 1011.04 302.059 1001.94 312.257L978.63 338.386C976.215 341.093 974.05 344.014 972.163 347.112L957 372V372C927.327 410.692 953.339 467.282 1002.07 469.013L1047.13 470.613C1079.42 471.76 1105 498.267 1105 530.576V578.431C1105 601.756 1091.48 622.967 1070.34 632.818L941.048 693.056C933.112 696.753 924.463 698.669 915.709 698.669H284.455C270.582 698.669 257.137 693.861 246.41 685.065L186.068 635.585C171.538 623.67 163.429 605.636 164.158 586.859L165.469 553.132C166.832 518.066 197.866 491.649 232.7 495.904L293.962 503.388C315.588 506.03 336.947 496.741 349.762 479.121L380.206 437.261C383.387 432.886 385.963 428.102 387.862 423.037L401.931 385.518Z" fill="#A0603B"/>
<path d="M415.415 400.034C424.87 377.973 446.562 363.669 470.564 363.669H529C562.137 363.669 589 336.806 589 303.669V303.669C589 270.532 562.137 243.669 529 243.669H343C309.863 243.669 283 216.806 283 183.669V182.088C283 157.655 297.815 135.663 320.458 126.483L420.843 85.7866C427.559 83.0639 434.712 81.5804 441.957 81.4079L724.019 74.6922C752.35 74.0176 780.5 79.3712 806.604 90.3982L958.884 154.723C982.809 164.83 997.516 189.182 995.323 215.061L990.414 272.986C989.489 283.899 985.594 294.352 979.152 303.209L936.476 361.89C929.017 372.145 925 384.499 925 397.18V415.669C925 448.806 951.863 475.669 985 475.669H1035C1068.14 475.669 1095 502.532 1095 535.669V564.6C1095 589.357 1079.79 611.572 1056.72 620.532L935.477 667.601C928.552 670.29 921.189 671.669 913.762 671.669H280.556C266.621 671.669 253.121 666.819 242.373 657.951L200.817 623.668C187.001 612.27 179 595.296 179 577.385V551.546C179 520.899 202.096 495.178 232.567 491.892L348.109 479.432C369.662 477.107 388.285 463.338 396.824 443.413L415.415 400.034Z" fill="#E38F33"/>
<path d="M438.937 471.949C452.566 440.244 482.236 418.357 516.551 414.694L544.685 411.691C577.986 408.136 607.297 388.148 622.765 358.445L630.026 344.503C639.137 327.007 642.857 307.202 640.714 287.593V287.593C635.187 236.992 592.449 198.669 541.547 198.669H366.429C357.973 198.669 350.007 194.698 344.917 187.945V187.945C333.149 172.333 341.407 149.779 360.474 145.457L451.475 124.828C457.805 123.393 464.276 122.669 470.767 122.669H741.552C754.397 122.669 767.122 125.144 779.031 129.958L907.18 181.763C932.455 191.98 949 216.515 949 243.776V254.294C949 276.477 934.954 296.227 914 303.508V303.508C893.046 310.788 879 330.539 879 352.721V356.493C879 359.937 878.69 363.373 878.074 366.761L872.525 397.283C864.523 441.292 886.721 485.263 926.882 504.957L951.59 517.074C959.097 520.755 967.347 522.669 975.708 522.669H995.64C1024.32 522.669 1044.14 551.361 1033.99 578.188V578.188C1029.57 589.866 1020.08 598.895 1008.19 602.715L929.924 627.872C920.035 631.05 909.711 632.669 899.324 632.669H837H331.658C323.824 632.669 316.039 631.436 308.588 629.016L269.04 616.17C239.633 606.619 228.384 570.947 246.994 546.254V546.254C255.779 534.597 269.671 527.922 284.262 528.348L329.5 529.669L350.855 529.743C389.146 529.875 423.815 507.127 438.937 471.949V471.949Z" fill="#E6A851"/>
<ellipse rx="7.98508" ry="2.96589" transform="matrix(-0.806496 -0.59124 -0.59124 0.806496 899.085 242.113)" fill="#F9CF9D"/>
<ellipse cx="908.458" cy="242.154" rx="7.98509" ry="2.96589" transform="rotate(-36.245 908.458 242.154)" fill="#F9CF9D"/>
<ellipse rx="7.98508" ry="2.96589" transform="matrix(-0.806496 -0.59124 -0.59124 0.806496 873.433 228.113)" fill="#F9CF9D"/>
<ellipse cx="882.807" cy="228.154" rx="7.98509" ry="2.96589" transform="rotate(-36.245 882.807 228.154)" fill="#F9CF9D"/>
<ellipse rx="7.98508" ry="2.96589" transform="matrix(-0.806496 -0.59124 -0.59124 0.806496 814.433 310.113)" fill="#F9CF9D"/>
<ellipse cx="823.807" cy="310.154" rx="7.98509" ry="2.96589" transform="rotate(-36.245 823.807 310.154)" fill="#F9CF9D"/>
<ellipse rx="7.98508" ry="2.96589" transform="matrix(-0.806496 -0.59124 -0.59124 0.806496 309.433 195.113)" fill="#F9CF9D"/>
<ellipse cx="318.807" cy="195.154" rx="7.98509" ry="2.96589" transform="rotate(-36.245 318.807 195.154)" fill="#F9CF9D"/>
<ellipse rx="7.98508" ry="2.96589" transform="matrix(-0.806496 -0.59124 -0.59124 0.806496 320.433 219.113)" fill="#F9CF9D"/>
<ellipse cx="329.807" cy="219.154" rx="7.98509" ry="2.96589" transform="rotate(-36.245 329.807 219.154)" fill="#F9CF9D"/>
<ellipse rx="7.98508" ry="2.96589" transform="matrix(-0.806496 -0.59124 -0.59124 0.806496 531.433 594.113)" fill="#F9CF9D"/>
<ellipse cx="540.807" cy="594.154" rx="7.98509" ry="2.96589" transform="rotate(-36.245 540.807 594.154)" fill="#F9CF9D"/>
<ellipse rx="8.19608" ry="3.72549" transform="matrix(-1 0 0 1 297.5 511.275)" fill="#F0A048"/>
<rect width="5.21569" height="13.4118" rx="2.60784" transform="matrix(-1 0 0 1 300.108 499.353)" fill="#7289DA"/>
<circle r="11.1765" transform="matrix(-1 0 0 1 297.5 490.784)" fill="#FF6969" stroke="white" stroke-width="5.21569"/>
<path d="M693 334.262C693 308.792 717.015 290.158 741.687 296.484V296.484C758.937 300.907 771 316.453 771 334.262V344C771 362.778 786.222 378 805 378V378C823.778 378 839 393.222 839 412V435.267C839 448.663 843.697 461.636 852.273 471.928L891.172 518.607C896.23 524.676 899 532.327 899 540.227V540.227C899 558.879 883.879 574 865.227 574H693L598.537 586.189C579.519 588.643 560.266 583.983 544.474 573.105L530.272 563.321C502.142 543.942 495.453 505.219 515.453 477.527V477.527C525.367 463.8 540.549 454.821 557.354 452.746L631.618 443.578C666.672 439.25 693 409.472 693 374.152V334.262Z" fill="#F9CF9D"/>
<ellipse rx="8.55089" ry="5.13054" transform="matrix(-1 0 0 1 892.631 643.086)" fill="#F0A048"/>
<mask id="mask0" mask-type="alpha" maskUnits="userSpaceOnUse" x="888" y="627" width="9" height="18">
<path d="M896.479 631.542C896.479 629.417 894.756 627.695 892.631 627.695V627.695C890.506 627.695 888.783 629.417 888.783 631.542V640.948C888.783 643.074 890.506 644.796 892.631 644.796V644.796V644.796C894.756 644.796 896.479 643.074 896.479 640.948V631.542Z" fill="#7A2544"/>
</mask>
<g mask="url(#mask0)">
<rect width="5.13054" height="17.1018" transform="matrix(-1 0 0 1 897.334 627.695)" fill="#A0603B"/>
<rect width="4.27545" height="17.1018" transform="matrix(-1 0 0 1 892.203 627.695)" fill="#7A2544"/>
</g>
<path d="M910.095 630.094C903.987 634.202 896.903 636.104 889.802 635.542C882.701 634.98 875.925 631.981 870.39 626.95L892.245 596.58L910.095 630.094Z" fill="#AB333B"/>
<path d="M913.423 627.55C909.147 631.242 904.166 633.766 898.872 634.922C893.578 636.078 888.118 635.833 882.923 634.208L892.245 596.58L913.423 627.55Z" fill="#DB4242"/>
<path d="M906.926 616.422C901.802 619.87 895.859 621.465 889.901 620.994C883.944 620.522 878.258 618.006 873.615 613.785L891.95 588.305L906.926 616.422Z" fill="#AB333B"/>
<path d="M909.719 614.288C906.131 617.386 901.952 619.504 897.51 620.473C893.069 621.443 888.488 621.238 884.13 619.874L891.95 588.305L909.719 614.288Z" fill="#DB4242"/>
<ellipse rx="1.65501" ry="2.31702" transform="matrix(-0.97458 0.224041 0.224041 0.97458 903.022 628.338)" fill="#F1BC72"/>
<ellipse rx="2.49378" ry="3.4913" transform="matrix(-0.97458 0.224041 0.224041 0.97458 895.983 612.458)" fill="#F1BC72"/>
<ellipse rx="8.55089" ry="5.13054" transform="matrix(-1 0 0 1 831.727 641.762)" fill="#F0A048"/>
<mask id="mask1" mask-type="alpha" maskUnits="userSpaceOnUse" x="827" y="626" width="9" height="18">
<path d="M835.574 630.219C835.574 628.093 833.852 626.371 831.727 626.371V626.371C829.601 626.371 827.879 628.093 827.879 630.219V639.624C827.879 641.75 829.601 643.472 831.727 643.472V643.472V643.472C833.852 643.472 835.574 641.75 835.574 639.624V630.219Z" fill="#7A2544"/>
</mask>
<g mask="url(#mask1)">
<rect width="5.13054" height="17.1018" transform="matrix(-1 0 0 1 836.429 626.371)" fill="#A0603B"/>
<rect width="4.27545" height="17.1018" transform="matrix(-1 0 0 1 831.299 626.371)" fill="#7A2544"/>
</g>
<path d="M849.191 628.77C843.083 632.878 835.999 634.78 828.898 634.218C821.797 633.656 815.021 630.657 809.486 625.626L831.34 595.256L849.191 628.77Z" fill="#A0603B"/>
<path d="M852.519 626.226C848.243 629.918 843.261 632.442 837.968 633.598C832.674 634.754 827.214 634.509 822.019 632.884L831.34 595.256L852.519 626.226Z" fill="#C77930"/>
<path d="M846.617 615.107C841.492 619.529 835.549 621.576 829.591 620.971C823.634 620.366 817.949 617.138 813.305 611.723L831.641 579.037L846.617 615.107Z" fill="#A0603B"/>
<path d="M849.409 612.369C845.821 616.343 841.642 619.06 837.201 620.303C832.759 621.547 828.178 621.284 823.82 619.534L831.641 579.037L849.409 612.369Z" fill="#C77930"/>
<ellipse rx="1.65501" ry="2.31702" transform="matrix(-0.97458 0.224041 0.224041 0.97458 842.118 627.014)" fill="#F1BC72"/>
<ellipse rx="2.49378" ry="3.4913" transform="matrix(-0.97458 0.224041 0.224041 0.97458 835.079 611.134)" fill="#F1BC72"/>
<ellipse rx="11.9021" ry="7.14124" transform="matrix(-1 0 0 1 747.236 643.459)" fill="#F0A048"/>
<mask id="mask2" mask-type="alpha" maskUnits="userSpaceOnUse" x="741" y="622" width="12" height="24">
<path d="M752.592 627.391C752.592 624.433 750.194 622.035 747.236 622.035V622.035C744.278 622.035 741.88 624.433 741.88 627.391V640.483C741.88 643.441 744.278 645.839 747.236 645.839V645.839V645.839C750.194 645.839 752.592 643.441 752.592 640.483V627.391Z" fill="#7A2544"/>
</mask>
<g mask="url(#mask2)">
<rect width="7.14124" height="23.8041" transform="matrix(-1 0 0 1 753.782 622.035)" fill="#A0603B"/>
<rect width="5.95103" height="23.8041" transform="matrix(-1 0 0 1 746.641 622.035)" fill="#7A2544"/>
</g>
<mask id="mask3" mask-type="alpha" maskUnits="userSpaceOnUse" x="710" y="560" width="75" height="74">
<circle r="36.7882" transform="matrix(-1 0 0 1 747.597 596.788)" fill="#AB333B"/>
</mask>
<g mask="url(#mask3)">
<ellipse rx="41.1162" ry="45.4442" transform="matrix(-1 0 0 1 747.597 593.903)" fill="#AB333B"/>
<circle r="38.2309" transform="matrix(-1 0 0 1 761.302 583.083)" fill="#DB4242"/>
<ellipse rx="8.81044" ry="3.52418" transform="matrix(-0.741536 0.670913 0.670913 0.741536 759.907 589.669)" fill="#F1BC72"/>
<ellipse rx="8.81044" ry="3.52418" transform="matrix(0.394673 0.918822 0.918822 -0.394673 732.928 605.313)" fill="#F1BC72"/>
<circle r="3.60668" transform="matrix(-1 0 0 1 729.563 580.198)" fill="#F1BC72"/>
<circle r="3.60668" transform="matrix(-1 0 0 1 765.63 612.658)" fill="#F1BC72"/>
</g>
<rect width="8.33333" height="8.33333" transform="matrix(0 -1 -1 0 832.667 268.333)" fill="white"/>
<rect width="8.33333" height="8.33333" transform="matrix(0 -1 -1 0 824.333 276.667)" fill="white"/>
<rect width="8.33333" height="8.33333" transform="matrix(0 -1 -1 0 832.667 285)" fill="white"/>
<rect width="8.33333" height="8.33333" transform="matrix(0 -1 -1 0 841 276.667)" fill="white"/>
<rect width="8.33333" height="8.33333" transform="matrix(0 -1 -1 0 854.667 313.333)" fill="white"/>
<rect width="8.33333" height="8.33333" transform="matrix(0 -1 -1 0 846.333 321.667)" fill="white"/>
<rect width="8.33333" height="8.33333" transform="matrix(0 -1 -1 0 854.667 330)" fill="white"/>
<rect width="8.33333" height="8.33333" transform="matrix(0 -1 -1 0 863 321.667)" fill="white"/>
<rect width="8.33333" height="8.33333" transform="matrix(0 -1 -1 0 611.667 364.333)" fill="white"/>
<rect width="8.33333" height="8.33333" transform="matrix(0 -1 -1 0 603.333 372.667)" fill="white"/>
<rect width="8.33333" height="8.33333" transform="matrix(0 -1 -1 0 611.667 381)" fill="white"/>
<rect width="8.33333" height="8.33333" transform="matrix(0 -1 -1 0 620 372.667)" fill="white"/>
<rect width="8.33333" height="8.33333" transform="matrix(0 -1 -1 0 263.667 616.333)" fill="white"/>
<rect width="8.33333" height="8.33333" transform="matrix(0 -1 -1 0 255.333 624.667)" fill="white"/>
<rect width="8.33333" height="8.33333" transform="matrix(0 -1 -1 0 263.667 633)" fill="white"/>
<rect width="8.33333" height="8.33333" transform="matrix(0 -1 -1 0 272 624.667)" fill="white"/>
<rect width="8.33333" height="8.33333" transform="matrix(0 -1 -1 0 630.667 624.333)" fill="white"/>
<rect width="8.33333" height="8.33333" transform="matrix(0 -1 -1 0 622.333 632.667)" fill="white"/>
<rect width="8.33333" height="8.33333" transform="matrix(0 -1 -1 0 630.667 641)" fill="white"/>
<rect width="8.33333" height="8.33333" transform="matrix(0 -1 -1 0 639 632.667)" fill="white"/>
<rect width="8.33333" height="8.33333" transform="matrix(0 -1 -1 0 722.667 406.333)" fill="white"/>
<rect width="8.33333" height="8.33333" transform="matrix(0 -1 -1 0 714.333 414.667)" fill="white"/>
<rect width="8.33333" height="8.33333" transform="matrix(0 -1 -1 0 722.667 423)" fill="white"/>
<rect width="8.33333" height="8.33333" transform="matrix(0 -1 -1 0 731 414.667)" fill="white"/>
<rect width="8.33333" height="8.33333" transform="matrix(0 -1 -1 0 930.667 506.333)" fill="white"/>
<rect width="8.33333" height="8.33333" transform="matrix(0 -1 -1 0 922.333 514.667)" fill="white"/>
<rect width="8.33333" height="8.33333" transform="matrix(0 -1 -1 0 930.667 523)" fill="white"/>
<rect width="8.33333" height="8.33333" transform="matrix(0 -1 -1 0 939 514.667)" fill="white"/>
<rect width="8.33333" height="8.33333" transform="matrix(0 -1 -1 0 722.667 406.333)" fill="white"/>
<rect width="8.33333" height="8.33333" transform="matrix(0 -1 -1 0 714.333 414.667)" fill="white"/>
<rect width="8.33333" height="8.33333" transform="matrix(0 -1 -1 0 722.667 423)" fill="white"/>
<rect width="8.33333" height="8.33333" transform="matrix(0 -1 -1 0 731 414.667)" fill="white"/>
<ellipse rx="13.5821" ry="5.04478" transform="matrix(-0.806496 -0.59124 -0.59124 0.806496 634.12 402.099)" fill="#E38F33"/>
<ellipse cx="650.064" cy="402.168" rx="13.5821" ry="5.04478" transform="rotate(-36.245 650.064 402.168)" fill="#E38F33"/>
<ellipse rx="13.5821" ry="5.04478" transform="matrix(-0.806496 -0.59124 -0.59124 0.806496 412.12 561.099)" fill="#E38F33"/>
<ellipse cx="428.064" cy="561.168" rx="13.5821" ry="5.04478" transform="rotate(-36.245 428.064 561.168)" fill="#E38F33"/>
<ellipse rx="13.5821" ry="5.04478" transform="matrix(-0.806496 -0.59124 -0.59124 0.806496 323.12 585.099)" fill="#E38F33"/>
<ellipse cx="339.064" cy="585.168" rx="13.5821" ry="5.04478" transform="rotate(-36.245 339.064 585.168)" fill="#E38F33"/>
<ellipse rx="13.5821" ry="5.04478" transform="matrix(-0.806496 -0.59124 -0.59124 0.806496 721.12 501.099)" fill="#E38F33"/>
<ellipse cx="737.064" cy="501.168" rx="13.5821" ry="5.04478" transform="rotate(-36.245 737.064 501.168)" fill="#E38F33"/>
<ellipse rx="13.5821" ry="5.04478" transform="matrix(-0.806496 -0.59124 -0.59124 0.806496 677.12 458.099)" fill="#E38F33"/>
<ellipse cx="693.064" cy="458.168" rx="13.5821" ry="5.04478" transform="rotate(-36.245 693.064 458.168)" fill="#E38F33"/>
<ellipse rx="13.5821" ry="5.04478" transform="matrix(-0.806496 -0.59124 -0.59124 0.806496 774.12 469.099)" fill="#E38F33"/>
<ellipse cx="790.064" cy="469.168" rx="13.5821" ry="5.04478" transform="rotate(-36.245 790.064 469.168)" fill="#E38F33"/>
<ellipse rx="11.127" ry="6.67621" transform="matrix(-1 0 0 1 1032.98 514.511)" fill="#F0A048"/>
<mask id="mask4" mask-type="alpha" maskUnits="userSpaceOnUse" x="1027" y="494" width="11" height="23">
<path d="M1037.99 499.489C1037.99 496.724 1035.75 494.482 1032.98 494.482V494.482C1030.22 494.482 1027.97 496.724 1027.97 499.489V511.729C1027.97 514.494 1030.22 516.736 1032.98 516.736V516.736V516.736C1035.75 516.736 1037.99 514.494 1037.99 511.729V499.489Z" fill="#7A2544"/>
</mask>
<g mask="url(#mask4)">
<rect width="6.67621" height="22.254" transform="matrix(-1 0 0 1 1039.1 494.482)" fill="#A0603B"/>
<rect width="5.56351" height="22.254" transform="matrix(-1 0 0 1 1032.43 494.482)" fill="#7A2544"/>
</g>
<path d="M1055.71 497.604C1047.76 502.95 1038.54 505.425 1029.3 504.694C1020.06 503.962 1011.24 500.059 1004.04 493.513L1032.48 453.994L1055.71 497.604Z" fill="#AB333B"/>
<path d="M1060.04 494.293C1054.47 499.099 1047.99 502.383 1041.1 503.887C1034.21 505.39 1027.11 505.072 1020.35 502.957L1032.48 453.994L1060.04 494.293Z" fill="#DB4242"/>
<path d="M1051.58 479.814C1044.92 484.299 1037.18 486.376 1029.43 485.762C1021.68 485.148 1014.28 481.874 1008.24 476.382L1032.1 443.226L1051.58 479.814Z" fill="#AB333B"/>
<path d="M1055.22 477.036C1050.55 481.068 1045.11 483.823 1039.33 485.085C1033.55 486.347 1027.59 486.08 1021.92 484.305L1032.1 443.226L1055.22 477.036Z" fill="#DB4242"/>
<ellipse rx="2.15361" ry="3.01506" transform="matrix(-0.97458 0.224041 0.224041 0.97458 1046.5 495.318)" fill="#F1BC72"/>
<ellipse rx="3.24508" ry="4.54312" transform="matrix(-0.97458 0.224041 0.224041 0.97458 1037.34 474.655)" fill="#F1BC72"/>
<ellipse rx="11.127" ry="6.67621" transform="matrix(-1 0 0 1 1070.02 534.324)" fill="#F0A048"/>
<mask id="mask5" mask-type="alpha" maskUnits="userSpaceOnUse" x="1065" y="514" width="11" height="23">
<path d="M1075.03 519.302C1075.03 516.537 1072.79 514.295 1070.02 514.295V514.295C1067.26 514.295 1065.02 516.537 1065.02 519.302V531.542C1065.02 534.307 1067.26 536.549 1070.02 536.549V536.549V536.549C1072.79 536.549 1075.03 534.307 1075.03 531.542V519.302Z" fill="#7A2544"/>
</mask>
<g mask="url(#mask5)">
<rect width="6.67621" height="22.254" transform="matrix(-1 0 0 1 1076.14 514.295)" fill="#A0603B"/>
<rect width="5.56351" height="22.254" transform="matrix(-1 0 0 1 1069.47 514.295)" fill="#7A2544"/>
</g>
<path d="M1092.75 517.417C1084.8 522.764 1075.58 525.238 1066.34 524.507C1057.1 523.775 1048.29 519.873 1041.08 513.327L1069.52 473.807L1092.75 517.417Z" fill="#A0603B"/>
<path d="M1097.08 514.106C1091.52 518.912 1085.03 522.196 1078.15 523.7C1071.26 525.204 1064.15 524.885 1057.39 522.77L1069.52 473.807L1097.08 514.106Z" fill="#C77930"/>
<path d="M1089.4 499.638C1082.73 505.392 1075 508.056 1067.25 507.268C1059.49 506.481 1052.09 502.281 1046.05 495.235L1069.91 452.702L1089.4 499.638Z" fill="#A0603B"/>
<path d="M1093.03 496.075C1088.37 501.247 1082.93 504.782 1077.15 506.4C1071.37 508.018 1065.41 507.676 1059.74 505.399L1069.91 452.702L1093.03 496.075Z" fill="#C77930"/>
<ellipse rx="2.15361" ry="3.01506" transform="matrix(-0.97458 0.224041 0.224041 0.97458 1083.54 515.132)" fill="#F1BC72"/>
<ellipse rx="3.24508" ry="4.54312" transform="matrix(-0.97458 0.224041 0.224041 0.97458 1074.39 494.468)" fill="#F1BC72"/>
<path d="M689.567 116.278C680.703 101.506 663.993 93.3143 646.887 95.3567L351.6 130.615C344.141 131.506 337.288 135.167 332.402 140.874V140.874C323.843 150.87 322.811 165.281 329.859 176.393L335.964 186.021C343.548 197.98 356.282 205.712 370.391 206.926L428.699 211.942C436.839 212.642 444.798 214.736 452.229 218.133L465.524 224.211C472.463 227.383 479.866 229.421 487.451 230.246L589.99 241.407C609.741 243.557 628.679 232.932 637.139 214.955L639.636 209.648C644.274 199.792 653.264 192.681 663.923 190.437V190.437C676.835 187.719 687.094 177.923 690.405 165.15L694.399 149.748C697.342 138.395 695.601 126.335 689.567 116.278V116.278Z" fill="#E38F33"/>
<rect width="8.33333" height="8.33333" transform="matrix(0 -1 -1 0 365.667 199.333)" fill="white"/>
<rect width="8.33333" height="8.33333" transform="matrix(0 -1 -1 0 357.333 207.667)" fill="white"/>
<rect width="8.33333" height="8.33333" transform="matrix(0 -1 -1 0 365.667 216)" fill="white"/>
<rect width="8.33333" height="8.33333" transform="matrix(0 -1 -1 0 374 207.667)" fill="white"/>
<path d="M610.026 63L656.656 161.875L669.473 154.49C671.596 153.268 672.739 150.859 672.344 148.442L668.788 126.674C668.4 124.302 667.297 122.106 665.624 120.381L610.026 63Z" fill="#C77930"/>
<path d="M610.026 63L563.396 161.875L550.579 154.49C548.456 153.268 547.313 150.859 547.708 148.442L551.264 126.674C551.652 124.302 552.755 122.106 554.428 120.381L610.026 63Z" fill="#7A2544"/>
<path d="M610.026 63L562.916 161.505L584.885 173.228C588.296 175.048 592.102 176 595.968 176H621.081C624.548 176 627.972 175.234 631.108 173.758L657.136 161.505L610.026 63Z" fill="#A0603B"/>
<path d="M446.901 28L516.226 175L535.283 164.021C538.438 162.203 540.137 158.622 539.55 155.028L534.264 122.665C533.688 119.14 532.046 115.875 529.561 113.309L446.901 28Z" fill="#C77930"/>
<path d="M446.901 28L467.01 72.975L469.853 71.2476C472.465 69.6605 474.059 66.826 474.059 63.7699V60.9741C474.059 56.1267 472.048 51.4964 468.506 48.187L446.901 28Z" fill="white"/>
<path d="M446.901 28L377.575 175L358.519 164.021C355.364 162.203 353.664 158.622 354.251 155.028L359.538 122.665C360.114 119.14 361.755 115.875 364.241 113.309L446.901 28Z" fill="#7A2544"/>
<path d="M446.901 28L426.791 72.975L423.949 71.2476C421.337 69.6605 419.743 66.826 419.743 63.7699V60.9741C419.743 56.1267 421.753 51.4964 425.295 48.187L446.901 28Z" fill="#E38F33"/>
<path d="M446.901 28L376.861 174.45L409.523 191.879C414.594 194.585 420.253 196 426 196H463.337C468.491 196 473.581 194.862 478.244 192.667L516.941 174.45L446.901 28Z" fill="#A0603B"/>
<path d="M446.901 28L425.46 72.2402L430.712 74.9217C435.64 77.438 441.095 78.75 446.628 78.75H447.02C452.42 78.75 457.747 77.5003 462.584 75.0987L468.342 72.2402L446.901 28Z" fill="#F9CF9D"/>
<path d="M540.948 100L599.132 223.375L615.126 214.16C617.773 212.635 619.2 209.629 618.707 206.613L614.27 179.451C613.787 176.492 612.409 173.752 610.323 171.599L540.948 100Z" fill="#C77930"/>
<path d="M540.948 100L557.826 137.747L560.211 136.297C562.403 134.965 563.741 132.586 563.741 130.021V127.675C563.741 123.606 562.054 119.72 559.081 116.943L540.948 100Z" fill="white"/>
<path d="M540.948 100L482.764 223.375L466.77 214.16C464.122 212.635 462.696 209.629 463.188 206.613L467.625 179.451C468.109 176.492 469.486 173.752 471.573 171.599L540.948 100Z" fill="#7A2544"/>
<path d="M540.948 100L524.07 137.747L521.684 136.297C519.492 134.965 518.154 132.586 518.154 130.021V127.675C518.154 123.606 519.842 119.72 522.814 116.943L540.948 100Z" fill="#E38F33"/>
<path d="M540.948 100L482.164 222.914L509.578 237.541C513.833 239.812 518.583 241 523.406 241H554.743C559.068 241 563.34 240.045 567.254 238.202L599.731 222.914L540.948 100Z" fill="#A0603B"/>
<path d="M540.948 100L522.953 137.13L527.361 139.381C531.497 141.493 536.075 142.594 540.719 142.594H541.048C545.58 142.594 550.051 141.545 554.111 139.529L558.943 137.13L540.948 100Z" fill="#F9CF9D"/>
<ellipse rx="10.9792" ry="6.5875" transform="matrix(-1 0 0 1 324.996 160.413)" fill="#F0A048"/>
<mask id="mask6" mask-type="alpha" maskUnits="userSpaceOnUse" x="320" y="140" width="10" height="23">
<path d="M329.937 145.591C329.937 142.862 327.725 140.65 324.996 140.65V140.65C322.267 140.65 320.055 142.862 320.055 145.591V157.668C320.055 160.396 322.267 162.608 324.996 162.608V162.608V162.608C327.725 162.608 329.937 160.396 329.937 157.668V145.591Z" fill="#7A2544"/>
</mask>
<g mask="url(#mask6)">
<rect width="6.5875" height="21.9583" transform="matrix(-1 0 0 1 331.034 140.65)" fill="#A0603B"/>
<rect width="5.48958" height="21.9583" transform="matrix(-1 0 0 1 324.447 140.65)" fill="#7A2544"/>
</g>
<path d="M347.419 143.73C339.577 149.006 330.482 151.448 321.364 150.726C312.246 150.004 303.546 146.153 296.439 139.694L324.5 100.7L347.419 143.73Z" fill="#AB333B"/>
<path d="M351.692 140.464C346.203 145.205 339.806 148.446 333.009 149.93C326.212 151.414 319.202 151.1 312.531 149.013L324.5 100.7L351.692 140.464Z" fill="#DB4242"/>
<path d="M343.351 126.177C336.771 130.603 329.14 132.652 321.491 132.046C313.841 131.44 306.542 128.21 300.579 122.79L324.122 90.075L343.351 126.177Z" fill="#AB333B"/>
<path d="M346.936 123.436C342.33 127.414 336.963 130.133 331.261 131.378C325.558 132.623 319.676 132.359 314.08 130.608L324.122 90.075L346.936 123.436Z" fill="#DB4242"/>
<ellipse rx="2.125" ry="2.975" transform="matrix(-0.97458 0.224041 0.224041 0.97458 338.337 141.475)" fill="#F1BC72"/>
<ellipse rx="3.20197" ry="4.48275" transform="matrix(-0.97458 0.224041 0.224041 0.97458 329.3 121.086)" fill="#F1BC72"/>
<ellipse rx="14.6098" ry="8.7659" transform="matrix(-1 0 0 1 509.4 594.446)" fill="#E38F33"/>
<mask id="mask7" mask-type="alpha" maskUnits="userSpaceOnUse" x="502" y="568" width="14" height="30">
<path d="M515.974 574.723C515.974 571.092 513.031 568.148 509.4 568.148V568.148C505.769 568.148 502.825 571.092 502.825 574.723V590.793C502.825 594.424 505.769 597.368 509.4 597.368V597.368V597.368C513.031 597.368 515.974 594.424 515.974 590.793V574.723Z" fill="#7A2544"/>
</mask>
<g mask="url(#mask7)">
<rect width="8.7659" height="29.2197" transform="matrix(-1 0 0 1 517.435 568.148)" fill="#A0603B"/>
<rect width="7.30492" height="29.2197" transform="matrix(-1 0 0 1 508.669 568.148)" fill="#7A2544"/>
</g>
<mask id="mask8" mask-type="alpha" maskUnits="userSpaceOnUse" x="464" y="492" width="91" height="91">
<circle r="45.1577" transform="matrix(-1 0 0 1 509.842 537.158)" fill="#AB333B"/>
</mask>
<g mask="url(#mask8)">
<ellipse rx="50.4704" ry="55.783" transform="matrix(-1 0 0 1 509.842 533.616)" fill="#AB333B"/>
<circle r="46.9286" transform="matrix(-1 0 0 1 526.666 520.334)" fill="#DB4242"/>
<ellipse rx="10.8149" ry="4.32594" transform="matrix(-0.741536 0.670913 0.670913 0.741536 524.953 528.419)" fill="#F1BC72"/>
<ellipse rx="10.8149" ry="4.32594" transform="matrix(0.394673 0.918822 0.918822 -0.394673 491.837 547.621)" fill="#F1BC72"/>
<circle r="4.42722" transform="matrix(-1 0 0 1 487.706 516.792)" fill="#F1BC72"/>
<circle r="4.42722" transform="matrix(-1 0 0 1 531.978 556.637)" fill="#F1BC72"/>
</g>
<ellipse rx="7.98508" ry="2.96589" transform="matrix(-0.806496 -0.59124 -0.59124 0.806496 362.433 635.113)" fill="#F9CF9D"/>
<ellipse cx="371.807" cy="635.154" rx="7.98509" ry="2.96589" transform="rotate(-36.245 371.807 635.154)" fill="#F9CF9D"/>
<ellipse rx="7.98508" ry="2.96589" transform="matrix(-0.806496 -0.59124 -0.59124 0.806496 342.433 623.113)" fill="#F9CF9D"/>
<ellipse cx="351.807" cy="623.154" rx="7.98509" ry="2.96589" transform="rotate(-36.245 351.807 623.154)" fill="#F9CF9D"/>
<ellipse rx="7.98508" ry="2.96589" transform="matrix(-0.806496 -0.59124 -0.59124 0.806496 393.433 632.113)" fill="#F9CF9D"/>
<ellipse cx="402.807" cy="632.154" rx="7.98509" ry="2.96589" transform="rotate(-36.245 402.807 632.154)" fill="#F9CF9D"/>
<ellipse rx="7.98508" ry="2.96589" transform="matrix(-0.806496 -0.59124 -0.59124 0.806496 1032.43 574.113)" fill="#F9CF9D"/>
<ellipse cx="1041.81" cy="574.154" rx="7.98509" ry="2.96589" transform="rotate(-36.245 1041.81 574.154)" fill="#F9CF9D"/>
<ellipse rx="7.98508" ry="2.96589" transform="matrix(-0.806496 -0.59124 -0.59124 0.806496 1002.43 588.113)" fill="#F9CF9D"/>
<ellipse cx="1011.81" cy="588.154" rx="7.98509" ry="2.96589" transform="rotate(-36.245 1011.81 588.154)" fill="#F9CF9D"/>
<ellipse rx="7.98508" ry="2.96589" transform="matrix(-0.806496 -0.59124 -0.59124 0.806496 1047.43 589.113)" fill="#F9CF9D"/>
<ellipse cx="1056.81" cy="589.154" rx="7.98509" ry="2.96589" transform="rotate(-36.245 1056.81 589.154)" fill="#F9CF9D"/>
<ellipse rx="10.9037" ry="6.5422" transform="matrix(-1 0 0 1 379.967 579.458)" fill="#E38F33"/>
<mask id="mask9" mask-type="alpha" maskUnits="userSpaceOnUse" x="375" y="559" width="10" height="23">
<path d="M384.874 564.738C384.874 562.028 382.677 559.831 379.967 559.831V559.831C377.258 559.831 375.061 562.028 375.061 564.738V576.732C375.061 579.442 377.258 581.639 379.967 581.639V581.639V581.639C382.677 581.639 384.874 579.442 384.874 576.732V564.738Z" fill="#7A2544"/>
</mask>
<g mask="url(#mask9)">
<rect width="6.5422" height="21.8073" transform="matrix(-1 0 0 1 385.964 559.831)" fill="#A0603B"/>
<rect width="5.45183" height="21.8073" transform="matrix(-1 0 0 1 379.422 559.831)" fill="#7A2544"/>
</g>
<mask id="mask10" mask-type="alpha" maskUnits="userSpaceOnUse" x="346" y="503" width="68" height="68">
<circle r="33.7022" transform="matrix(-1 0 0 1 380.298 536.702)" fill="#AB333B"/>
</mask>
<g mask="url(#mask10)">
<ellipse rx="37.6672" ry="41.6322" transform="matrix(-1 0 0 1 380.298 534.059)" fill="#AB333B"/>
<circle r="35.0239" transform="matrix(-1 0 0 1 392.854 524.147)" fill="#DB4242"/>
<ellipse rx="8.07138" ry="3.22855" transform="matrix(-0.741536 0.670913 0.670913 0.741536 391.575 530.181)" fill="#F1BC72"/>
<ellipse rx="8.07138" ry="3.22855" transform="matrix(0.394673 0.918822 0.918822 -0.394673 366.86 544.512)" fill="#F1BC72"/>
<circle r="3.30414" transform="matrix(-1 0 0 1 363.777 521.503)" fill="#F1BC72"/>
<circle r="3.30414" transform="matrix(-1 0 0 1 396.818 551.24)" fill="#F1BC72"/>
</g>
<ellipse rx="14.1671" ry="8.50027" transform="matrix(-1 0 0 1 439.007 614.9)" fill="#E38F33"/>
<mask id="mask11" mask-type="alpha" maskUnits="userSpaceOnUse" x="432" y="589" width="14" height="29">
<path d="M445.382 595.774C445.382 592.253 442.528 589.399 439.007 589.399V589.399C435.486 589.399 432.631 592.253 432.631 595.774V611.358C432.631 614.879 435.486 617.733 439.007 617.733V617.733V617.733C442.528 617.733 445.382 614.879 445.382 611.358V595.774Z" fill="#7A2544"/>
</mask>
<g mask="url(#mask11)">
<rect width="8.50027" height="28.3342" transform="matrix(-1 0 0 1 446.799 589.399)" fill="#A0603B"/>
<rect width="7.08356" height="28.3342" transform="matrix(-1 0 0 1 438.298 589.399)" fill="#7A2544"/>
</g>
<mask id="mask12" mask-type="alpha" maskUnits="userSpaceOnUse" x="393" y="512" width="92" height="91">
<circle r="45.1577" transform="matrix(-1 0 0 1 439.007 557.523)" fill="#AB333B"/>
</mask>
<g mask="url(#mask12)">
<ellipse rx="50.4704" ry="55.783" transform="matrix(-1 0 0 1 439.007 553.981)" fill="#A0603B"/>
<circle r="46.9286" transform="matrix(-1 0 0 1 455.83 540.699)" fill="#C77930"/>
<ellipse rx="10.8149" ry="4.32594" transform="matrix(-0.741536 0.670913 0.670913 0.741536 454.118 548.784)" fill="#F1BC72"/>
<ellipse rx="10.8149" ry="4.32594" transform="matrix(0.394673 0.918822 0.918822 -0.394673 421.001 567.987)" fill="#F1BC72"/>
<circle r="4.42722" transform="matrix(-1 0 0 1 416.871 537.158)" fill="#F1BC72"/>
<circle r="4.42722" transform="matrix(-1 0 0 1 461.143 577.003)" fill="#F1BC72"/>
</g>
<path d="M248.021 352.485C242.326 345.234 233.616 341 224.396 341H152.931C147.679 341 142.462 341.857 137.485 343.536L83.0588 361.902C63.9452 368.352 61.6554 394.463 79.3548 404.141V404.141C81.7657 405.459 84.392 406.338 87.1109 406.735L156.492 416.879C166.043 418.275 175.786 417.52 185.007 414.668L233.272 399.741C253.396 393.517 261.032 369.051 248.021 352.485V352.485Z" fill="#8C9DDE"/>
<path d="M122.465 302.456C120.713 300.271 118.065 299 115.265 299H92.5692C90.9823 299 89.4057 299.254 87.899 299.752L70.7216 305.431C64.7911 307.392 64.09 315.499 69.5959 318.448V318.448C70.3279 318.841 71.1231 319.101 71.9452 319.219L93.9327 322.369C96.8349 322.785 99.7929 322.559 102.599 321.709L117.941 317.06C124.193 315.166 126.551 307.553 122.465 302.456V302.456Z" fill="#8C9DDE"/>
<path d="M1171.46 299.456C1169.71 297.271 1167.06 296 1164.26 296H1141.57C1139.98 296 1138.41 296.254 1136.9 296.752L1119.72 302.431C1113.79 304.392 1113.09 312.499 1118.6 315.448V315.448C1119.33 315.841 1120.12 316.101 1120.95 316.219L1142.93 319.369C1145.83 319.785 1148.79 319.559 1151.6 318.709L1166.94 314.06C1173.19 312.166 1175.55 304.553 1171.46 299.456V299.456Z" fill="#8C9DDE"/>
<path d="M1219.06 353.811C1214.79 344.197 1205.26 338 1194.74 338H1178.47C1171.46 338 1164.58 339.897 1158.56 343.491L1138.41 355.52C1126.61 362.565 1124.72 378.895 1134.6 388.451V388.451C1137.19 390.96 1140.39 392.753 1143.88 393.657L1163.75 398.795C1174.2 401.497 1185.28 400.118 1194.74 394.94L1207.51 387.951C1219.66 381.307 1224.68 366.462 1219.06 353.811V353.811Z" fill="#8C9DDE"/>
</svg>
