<svg width="1163" height="1385" viewBox="0 0 1163 1385" fill="none" xmlns="http://www.w3.org/2000/svg">
<rect x="428" y="512" width="32" height="186" fill="#215278"/>
<rect x="460" y="512" width="32" height="186" fill="#3774A3"/>
<rect x="492" y="512" width="32" height="186" fill="#4ADEFF"/>
<rect x="524" y="512" width="32" height="186" fill="#51B0F9"/>
<rect x="556" y="512" width="32" height="186" fill="#215278"/>
<rect x="588" y="512" width="32" height="186" fill="#3B88C3"/>
<rect x="450" y="1060" width="32" height="186" fill="#215278"/>
<rect x="482" y="1060" width="32" height="186" fill="#3774A3"/>
<rect x="514" y="1060" width="32" height="186" fill="#4ADEFF"/>
<rect x="546" y="1060" width="32" height="186" fill="#51B0F9"/>
<rect x="578" y="1060" width="32" height="186" fill="#215278"/>
<rect x="610" y="1060" width="32" height="186" fill="#3B88C3"/>
<rect x="428" y="812" width="32" height="186" fill="#215278"/>
<rect x="460" y="812" width="32" height="186" fill="#3774A3"/>
<rect x="492" y="812" width="32" height="186" fill="#4ADEFF"/>
<rect x="524" y="812" width="32" height="186" fill="#51B0F9"/>
<rect x="556" y="812" width="32" height="186" fill="#215278"/>
<rect x="588" y="812" width="32" height="186" fill="#3B88C3"/>
<rect x="192" y="29" width="664" height="232" rx="31.4762" fill="#1C81CE"/>
<rect x="217" y="54" width="614" height="182" rx="12" fill="#1C0D03"/>
<path d="M318.039 184H291.306C282.176 184 275.383 182.174 270.928 178.522C266.546 174.87 264.354 169.246 264.354 161.65V127.577C264.354 119.981 266.546 114.356 270.928 110.704C275.383 106.979 282.176 105.117 291.306 105.117H318.039C319.427 105.117 320.413 105.446 320.997 106.103C321.654 106.687 321.983 107.673 321.983 109.061V122.318C321.983 123.706 321.654 124.728 320.997 125.385C320.413 125.97 319.427 126.262 318.039 126.262H296.017C293.753 126.262 292.073 126.737 290.978 127.686C289.882 128.563 289.334 129.914 289.334 131.74V157.815C289.334 159.641 289.882 160.992 290.978 161.869C292.073 162.672 293.753 163.074 296.017 163.074H318.039C319.427 163.074 320.413 163.403 320.997 164.06C321.654 164.644 321.983 165.63 321.983 167.018V180.056C321.983 181.444 321.654 182.466 320.997 183.124C320.413 183.708 319.427 184 318.039 184ZM400.652 163.293C400.652 166.653 400.141 169.721 399.118 172.496C398.169 175.199 396.416 177.536 393.859 179.508C391.376 181.407 387.907 182.904 383.451 184C379.069 185.096 373.481 185.643 366.688 185.643C359.896 185.643 354.272 185.096 349.816 184C345.361 182.904 341.855 181.407 339.299 179.508C336.815 177.536 335.062 175.199 334.04 172.496C333.09 169.721 332.615 166.653 332.615 163.293V125.933C332.615 122.573 333.09 119.542 334.04 116.84C335.062 114.064 336.815 111.691 339.299 109.718C341.855 107.746 345.361 106.213 349.816 105.117C354.272 104.021 359.896 103.474 366.688 103.474C373.481 103.474 379.069 104.021 383.451 105.117C387.907 106.213 391.376 107.746 393.859 109.718C396.416 111.691 398.169 114.064 399.118 116.84C400.141 119.542 400.652 122.573 400.652 125.933V163.293ZM357.485 159.349C357.485 160.81 358.033 162.052 359.129 163.074C360.224 164.024 362.744 164.498 366.688 164.498C370.633 164.498 373.153 164.024 374.248 163.074C375.344 162.052 375.892 160.81 375.892 159.349V129.877C375.892 128.49 375.344 127.321 374.248 126.372C373.153 125.349 370.633 124.838 366.688 124.838C362.744 124.838 360.224 125.349 359.129 126.372C358.033 127.321 357.485 128.49 357.485 129.877V159.349ZM455.465 184H418.544C417.156 184 416.133 183.708 415.476 183.124C414.892 182.466 414.6 181.444 414.6 180.056V109.061C414.6 107.673 414.892 106.687 415.476 106.103C416.133 105.446 417.156 105.117 418.544 105.117H455.465C464.595 105.117 471.352 106.943 475.734 110.595C480.189 114.247 482.417 119.871 482.417 127.467V161.65C482.417 169.246 480.189 174.87 475.734 178.522C471.352 182.174 464.595 184 455.465 184ZM439.47 126.043V163.293H452.507C454.26 163.293 455.538 162.855 456.342 161.978C457.218 161.102 457.657 159.751 457.657 157.925V131.302C457.657 129.476 457.218 128.161 456.342 127.358C455.538 126.481 454.26 126.043 452.507 126.043H439.47ZM551.121 184H500.286C498.898 184 497.875 183.708 497.218 183.124C496.634 182.466 496.341 181.444 496.341 180.056V109.061C496.341 107.673 496.634 106.687 497.218 106.103C497.875 105.446 498.898 105.117 500.286 105.117H551.121C552.509 105.117 553.495 105.446 554.079 106.103C554.737 106.687 555.066 107.673 555.066 109.061V121.88C555.066 123.267 554.737 124.29 554.079 124.947C553.495 125.532 552.509 125.824 551.121 125.824H520.883V134.26H542.247C543.635 134.26 544.621 134.589 545.205 135.246C545.862 135.83 546.191 136.816 546.191 138.204V149.927C546.191 151.315 545.862 152.337 545.205 152.995C544.621 153.579 543.635 153.871 542.247 153.871H520.883V163.293H551.121C552.509 163.293 553.495 163.622 554.079 164.279C554.737 164.864 555.066 165.85 555.066 167.237V180.056C555.066 181.444 554.737 182.466 554.079 183.124C553.495 183.708 552.509 184 551.121 184ZM596.621 128.124L591.472 144.778H608.673L603.524 128.124C603.231 127.467 602.903 126.992 602.537 126.7C602.245 126.408 601.88 126.262 601.442 126.262H598.703C598.265 126.262 597.863 126.408 597.498 126.7C597.206 126.992 596.913 127.467 596.621 128.124ZM590.376 180.056C590.376 181.444 590.048 182.466 589.39 183.124C588.806 183.708 587.82 184 586.432 184H570.327C568.939 184 567.917 183.708 567.259 183.124C566.675 182.466 566.383 181.444 566.383 180.056V151.132C566.383 148.941 566.711 146.421 567.369 143.572C568.099 140.724 569.195 137.401 570.656 133.602L580.187 108.732C580.626 107.491 581.283 106.578 582.159 105.993C583.109 105.409 584.314 105.117 585.775 105.117H615.246C616.634 105.117 617.766 105.409 618.643 105.993C619.592 106.578 620.286 107.491 620.724 108.732L630.256 133.602C631.717 137.401 632.776 140.724 633.433 143.572C634.164 146.421 634.529 148.941 634.529 151.132V180.056C634.529 181.444 634.2 182.466 633.543 183.124C632.959 183.708 631.973 184 630.585 184H614.041C612.58 184 611.485 183.708 610.754 183.124C610.097 182.466 609.768 181.444 609.768 180.056V164.717H590.376V180.056ZM650.247 184C648.86 184 647.837 183.708 647.18 183.124C646.595 182.466 646.303 181.444 646.303 180.056V167.018C646.303 165.63 646.595 164.644 647.18 164.06C647.837 163.403 648.86 163.074 650.247 163.074H661.094V126.262H650.247C648.86 126.262 647.837 125.97 647.18 125.385C646.595 124.728 646.303 123.706 646.303 122.318V109.061C646.303 107.673 646.595 106.687 647.18 106.103C647.837 105.446 648.86 105.117 650.247 105.117H696.92C698.308 105.117 699.294 105.446 699.878 106.103C700.535 106.687 700.864 107.673 700.864 109.061V122.318C700.864 123.706 700.535 124.728 699.878 125.385C699.294 125.97 698.308 126.262 696.92 126.262H686.293V163.074H696.92C698.308 163.074 699.294 163.403 699.878 164.06C700.535 164.644 700.864 165.63 700.864 167.018V180.056C700.864 181.444 700.535 182.466 699.878 183.124C699.294 183.708 698.308 184 696.92 184H650.247ZM755.257 184H718.335C716.948 184 715.925 183.708 715.268 183.124C714.683 182.466 714.391 181.444 714.391 180.056V109.061C714.391 107.673 714.683 106.687 715.268 106.103C715.925 105.446 716.948 105.117 718.335 105.117H755.257C764.387 105.117 771.143 106.943 775.526 110.595C779.981 114.247 782.209 119.871 782.209 127.467V161.65C782.209 169.246 779.981 174.87 775.526 178.522C771.143 182.174 764.387 184 755.257 184ZM739.261 126.043V163.293H752.299C754.052 163.293 755.33 162.855 756.134 161.978C757.01 161.102 757.448 159.751 757.448 157.925V131.302C757.448 129.476 757.01 128.161 756.134 127.358C755.33 126.481 754.052 126.043 752.299 126.043H739.261Z" fill="#FFF3EB"/>
<rect x="428" y="261" width="32" height="186" fill="#215278"/>
<rect x="460" y="261" width="32" height="186" fill="#3774A3"/>
<rect x="492" y="261" width="32" height="186" fill="#4ADEFF"/>
<rect x="524" y="261" width="32" height="186" fill="#51B0F9"/>
<rect x="556" y="261" width="32" height="186" fill="#215278"/>
<rect x="588" y="261" width="32" height="186" fill="#3B88C3"/>
<rect x="151" y="331" width="553" height="232" rx="31.4762" fill="#1C81CE"/>
<rect x="176" y="356" width="503" height="182" rx="12" fill="#1C0D03"/>
<path d="M286.477 486H234.327C232.939 486 231.916 485.708 231.259 485.124C230.675 484.466 230.382 483.444 230.382 482.056V463.212C230.382 458.975 230.784 455.506 231.588 452.803C232.464 450.028 233.669 447.764 235.203 446.011C236.737 444.258 238.563 442.87 240.681 441.847C242.799 440.825 245.1 439.948 247.583 439.218L262.264 434.616C263.433 434.324 264.2 433.886 264.565 433.302C265.003 432.717 265.222 431.841 265.222 430.672C265.222 429.577 265.003 428.846 264.565 428.481C264.127 428.043 263.36 427.824 262.264 427.824H238.49C237.102 427.824 236.08 427.532 235.422 426.947C234.838 426.29 234.546 425.267 234.546 423.88V411.061C234.546 409.673 234.838 408.687 235.422 408.103C236.08 407.446 237.102 407.117 238.49 407.117H270.81C277.018 407.117 281.766 408.687 285.053 411.828C288.413 414.896 290.093 419.388 290.093 425.304V435.602C290.093 441.08 288.559 445.28 285.491 448.202C282.423 451.123 278.26 453.388 273.001 454.995L258.101 459.706C257.005 459.998 256.239 460.326 255.8 460.692C255.435 461.057 255.252 461.824 255.252 462.992V465.293H286.477C287.865 465.293 288.851 465.622 289.435 466.279C290.093 466.864 290.421 467.85 290.421 469.237V482.056C290.421 483.444 290.093 484.466 289.435 485.124C288.851 485.708 287.865 486 286.477 486ZM369.006 486H332.085C330.697 486 329.674 485.708 329.017 485.124C328.433 484.466 328.141 483.444 328.141 482.056V411.061C328.141 409.673 328.433 408.687 329.017 408.103C329.674 407.446 330.697 407.117 332.085 407.117H369.006C378.136 407.117 384.893 408.943 389.275 412.595C393.73 416.247 395.958 421.871 395.958 429.467V463.65C395.958 471.246 393.73 476.87 389.275 480.522C384.893 484.174 378.136 486 369.006 486ZM353.011 428.043V465.293H366.048C367.801 465.293 369.079 464.855 369.883 463.978C370.759 463.102 371.198 461.751 371.198 459.925V433.302C371.198 431.476 370.759 430.161 369.883 429.358C369.079 428.481 367.801 428.043 366.048 428.043H353.011ZM438.478 430.124L433.328 446.778H450.529L445.38 430.124C445.088 429.467 444.759 428.992 444.394 428.7C444.102 428.408 443.736 428.262 443.298 428.262H440.559C440.121 428.262 439.719 428.408 439.354 428.7C439.062 428.992 438.77 429.467 438.478 430.124ZM432.233 482.056C432.233 483.444 431.904 484.466 431.247 485.124C430.662 485.708 429.676 486 428.289 486H412.183C410.795 486 409.773 485.708 409.116 485.124C408.531 484.466 408.239 483.444 408.239 482.056V453.132C408.239 450.941 408.568 448.421 409.225 445.572C409.956 442.724 411.051 439.401 412.512 435.602L422.044 410.732C422.482 409.491 423.139 408.578 424.016 407.993C424.965 407.409 426.17 407.117 427.631 407.117H457.103C458.491 407.117 459.623 407.409 460.499 407.993C461.449 408.578 462.143 409.491 462.581 410.732L472.112 435.602C473.573 439.401 474.632 442.724 475.29 445.572C476.02 448.421 476.385 450.941 476.385 453.132V482.056C476.385 483.444 476.057 484.466 475.399 485.124C474.815 485.708 473.829 486 472.441 486H455.898C454.437 486 453.341 485.708 452.611 485.124C451.953 484.466 451.625 483.444 451.625 482.056V466.717H432.233V482.056ZM527.12 486H509.371C507.984 486 506.961 485.708 506.304 485.124C505.719 484.466 505.427 483.444 505.427 482.056V468.032L488.665 445.572C486.985 443.308 485.853 441.336 485.268 439.656C484.757 437.976 484.501 435.456 484.501 432.097V411.061C484.501 409.673 484.793 408.687 485.378 408.103C486.035 407.446 487.058 407.117 488.445 407.117H505.318C506.705 407.117 507.691 407.446 508.276 408.103C508.933 408.687 509.262 409.673 509.262 411.061V429.029C509.262 429.759 509.298 430.526 509.371 431.33C509.444 432.133 509.737 432.9 510.248 433.63L515.288 441.519C515.653 442.176 516.018 442.651 516.383 442.943C516.821 443.235 517.333 443.381 517.917 443.381H519.013C519.597 443.381 520.072 443.235 520.437 442.943C520.875 442.651 521.277 442.176 521.642 441.519L526.682 433.63C527.193 432.9 527.485 432.133 527.558 431.33C527.631 430.526 527.668 429.759 527.668 429.029V411.061C527.668 409.673 527.96 408.687 528.544 408.103C529.202 407.446 530.224 407.117 531.612 407.117H547.936C549.324 407.117 550.31 407.446 550.895 408.103C551.552 408.687 551.881 409.673 551.881 411.061V432.097C551.881 435.456 551.588 437.976 551.004 439.656C550.42 441.336 549.324 443.308 547.717 445.572L531.064 468.142V482.056C531.064 483.444 530.736 484.466 530.078 485.124C529.494 485.708 528.508 486 527.12 486ZM600.972 486H566.351C564.963 486 563.941 485.708 563.283 485.124C562.699 484.466 562.407 483.444 562.407 482.056V469.237C562.407 467.85 562.699 466.864 563.283 466.279C563.941 465.622 564.963 465.293 566.351 465.293H595.823C596.772 465.293 597.466 465.001 597.904 464.417C598.416 463.759 598.671 462.992 598.671 462.116C598.671 460.874 598.416 459.961 597.904 459.377C597.466 458.793 596.772 458.464 595.823 458.391L579.389 456.09C574.276 455.36 570.149 453.68 567.008 451.05C563.941 448.421 562.407 444.039 562.407 437.903V426.399C562.407 420.191 564.416 415.443 568.433 412.157C572.45 408.797 578.001 407.117 585.086 407.117H615.763C617.15 407.117 618.136 407.446 618.721 408.103C619.378 408.687 619.707 409.673 619.707 411.061V424.099C619.707 425.486 619.378 426.509 618.721 427.166C618.136 427.751 617.15 428.043 615.763 428.043H590.235C589.286 428.043 588.555 428.372 588.044 429.029C587.533 429.613 587.277 430.38 587.277 431.33C587.277 432.279 587.533 433.083 588.044 433.74C588.555 434.397 589.286 434.763 590.235 434.836L606.56 437.027C611.672 437.757 615.799 439.437 618.94 442.067C622.081 444.696 623.651 449.078 623.651 455.214V466.717C623.651 472.926 621.606 477.71 617.516 481.07C613.498 484.357 607.984 486 600.972 486Z" fill="#FFF3EB"/>
<rect x="260" y="605" width="903" height="232" rx="31.4762" fill="#1C81CE"/>
<rect x="285" y="630" width="853" height="182" rx="12" fill="#1C0D03"/>
<path d="M392.628 763H344.203C342.815 763 341.793 762.708 341.135 762.124C340.551 761.466 340.259 760.444 340.259 759.056V745.799C340.259 744.411 340.551 743.425 341.135 742.841C341.793 742.184 342.815 741.855 344.203 741.855H356.474V705.262H346.394C345.006 705.262 343.984 704.97 343.327 704.385C342.742 703.728 342.45 702.706 342.45 701.318V688.061C342.45 686.673 342.742 685.687 343.327 685.103C343.984 684.446 345.006 684.117 346.394 684.117H378.167C379.554 684.117 380.54 684.446 381.125 685.103C381.782 685.687 382.111 686.673 382.111 688.061V741.855H392.628C394.016 741.855 395.002 742.184 395.587 742.841C396.244 743.425 396.573 744.411 396.573 745.799V759.056C396.573 760.444 396.244 761.466 395.587 762.124C395.002 762.708 394.016 763 392.628 763ZM442.841 744.704H424.326C417.241 744.704 412.128 743.243 408.987 740.321C405.919 737.326 404.386 732.725 404.386 726.517V688.061C404.386 686.673 404.678 685.687 405.262 685.103C405.919 684.446 406.942 684.117 408.33 684.117H425.312C426.699 684.117 427.685 684.446 428.27 685.103C428.927 685.687 429.256 686.673 429.256 688.061V718.08C429.256 719.249 429.548 720.162 430.132 720.819C430.79 721.477 431.629 721.805 432.652 721.805H442.841V688.061C442.841 686.673 443.133 685.687 443.718 685.103C444.375 684.446 445.398 684.117 446.785 684.117H463.657C465.045 684.117 466.031 684.446 466.616 685.103C467.273 685.687 467.602 686.673 467.602 688.061V759.056C467.602 760.444 467.273 761.466 466.616 762.124C466.031 762.708 465.045 763 463.657 763H446.785C445.398 763 444.375 762.708 443.718 762.124C443.133 761.466 442.841 760.444 442.841 759.056V744.704ZM543.92 763H509.299C507.912 763 506.889 762.708 506.232 762.124C505.647 761.466 505.355 760.444 505.355 759.056V746.237C505.355 744.85 505.647 743.864 506.232 743.279C506.889 742.622 507.912 742.293 509.299 742.293H538.771C539.721 742.293 540.414 742.001 540.853 741.417C541.364 740.759 541.62 739.992 541.62 739.116C541.62 737.874 541.364 736.961 540.853 736.377C540.414 735.793 539.721 735.464 538.771 735.391L522.337 733.09C517.224 732.36 513.098 730.68 509.957 728.05C506.889 725.421 505.355 721.039 505.355 714.903V703.399C505.355 697.191 507.364 692.443 511.381 689.157C515.398 685.797 520.949 684.117 528.034 684.117H558.711C560.099 684.117 561.085 684.446 561.669 685.103C562.326 685.687 562.655 686.673 562.655 688.061V701.099C562.655 702.486 562.326 703.509 561.669 704.166C561.085 704.751 560.099 705.043 558.711 705.043H533.183C532.234 705.043 531.504 705.372 530.992 706.029C530.481 706.613 530.225 707.38 530.225 708.33C530.225 709.279 530.481 710.083 530.992 710.74C531.504 711.397 532.234 711.763 533.183 711.836L549.508 714.027C554.621 714.757 558.747 716.437 561.888 719.067C565.029 721.696 566.599 726.078 566.599 732.214V743.717C566.599 749.926 564.554 754.71 560.464 758.07C556.447 761.357 550.932 763 543.92 763ZM633.364 763H582.528C581.14 763 580.118 762.708 579.461 762.124C578.876 761.466 578.584 760.444 578.584 759.056V688.061C578.584 686.673 578.876 685.687 579.461 685.103C580.118 684.446 581.14 684.117 582.528 684.117H633.364C634.752 684.117 635.738 684.446 636.322 685.103C636.979 685.687 637.308 686.673 637.308 688.061V700.88C637.308 702.267 636.979 703.29 636.322 703.947C635.738 704.532 634.752 704.824 633.364 704.824H603.125V713.26H624.49C625.877 713.26 626.863 713.589 627.448 714.246C628.105 714.83 628.434 715.816 628.434 717.204V728.927C628.434 730.315 628.105 731.337 627.448 731.995C626.863 732.579 625.877 732.871 624.49 732.871H603.125V742.293H633.364C634.752 742.293 635.738 742.622 636.322 743.279C636.979 743.864 637.308 744.85 637.308 746.237V759.056C637.308 760.444 636.979 761.466 636.322 762.124C635.738 762.708 634.752 763 633.364 763ZM686.862 763H652.241C650.853 763 649.83 762.708 649.173 762.124C648.589 761.466 648.297 760.444 648.297 759.056V746.237C648.297 744.85 648.589 743.864 649.173 743.279C649.83 742.622 650.853 742.293 652.241 742.293H681.712C682.662 742.293 683.356 742.001 683.794 741.417C684.305 740.759 684.561 739.992 684.561 739.116C684.561 737.874 684.305 736.961 683.794 736.377C683.356 735.793 682.662 735.464 681.712 735.391L665.278 733.09C660.166 732.36 656.039 730.68 652.898 728.05C649.83 725.421 648.297 721.039 648.297 714.903V703.399C648.297 697.191 650.305 692.443 654.322 689.157C658.34 685.797 663.891 684.117 670.976 684.117H701.652C703.04 684.117 704.026 684.446 704.61 685.103C705.268 685.687 705.596 686.673 705.596 688.061V701.099C705.596 702.486 705.268 703.509 704.61 704.166C704.026 704.751 703.04 705.043 701.652 705.043H676.125C675.175 705.043 674.445 705.372 673.934 706.029C673.422 706.613 673.167 707.38 673.167 708.33C673.167 709.279 673.422 710.083 673.934 710.74C674.445 711.397 675.175 711.763 676.125 711.836L692.449 714.027C697.562 714.757 701.689 716.437 704.83 719.067C707.97 721.696 709.541 726.078 709.541 732.214V743.717C709.541 749.926 707.495 754.71 703.405 758.07C699.388 761.357 693.874 763 686.862 763ZM757.583 763H722.963C721.575 763 720.552 762.708 719.895 762.124C719.311 761.466 719.018 760.444 719.018 759.056V746.237C719.018 744.85 719.311 743.864 719.895 743.279C720.552 742.622 721.575 742.293 722.963 742.293H752.434C753.384 742.293 754.078 742.001 754.516 741.417C755.027 740.759 755.283 739.992 755.283 739.116C755.283 737.874 755.027 736.961 754.516 736.377C754.078 735.793 753.384 735.464 752.434 735.391L736 733.09C730.887 732.36 726.761 730.68 723.62 728.05C720.552 725.421 719.018 721.039 719.018 714.903V703.399C719.018 697.191 721.027 692.443 725.044 689.157C729.061 685.797 734.612 684.117 741.697 684.117H772.374C773.762 684.117 774.748 684.446 775.332 685.103C775.989 685.687 776.318 686.673 776.318 688.061V701.099C776.318 702.486 775.989 703.509 775.332 704.166C774.748 704.751 773.762 705.043 772.374 705.043H746.847C745.897 705.043 745.167 705.372 744.655 706.029C744.144 706.613 743.888 707.38 743.888 708.33C743.888 709.279 744.144 710.083 744.655 710.74C745.167 711.397 745.897 711.763 746.847 711.836L763.171 714.027C768.284 714.757 772.411 716.437 775.551 719.067C778.692 721.696 780.262 726.078 780.262 732.214V743.717C780.262 749.926 778.217 754.71 774.127 758.07C770.11 761.357 764.595 763 757.583 763ZM794.438 763C793.051 763 792.028 762.708 791.371 762.124C790.786 761.466 790.494 760.444 790.494 759.056V746.018C790.494 744.63 790.786 743.644 791.371 743.06C792.028 742.403 793.051 742.074 794.438 742.074H805.285V705.262H794.438C793.051 705.262 792.028 704.97 791.371 704.385C790.786 703.728 790.494 702.706 790.494 701.318V688.061C790.494 686.673 790.786 685.687 791.371 685.103C792.028 684.446 793.051 684.117 794.438 684.117H841.111C842.499 684.117 843.485 684.446 844.069 685.103C844.726 685.687 845.055 686.673 845.055 688.061V701.318C845.055 702.706 844.726 703.728 844.069 704.385C843.485 704.97 842.499 705.262 841.111 705.262H830.484V742.074H841.111C842.499 742.074 843.485 742.403 844.069 743.06C844.726 743.644 845.055 744.63 845.055 746.018V759.056C845.055 760.444 844.726 761.466 844.069 762.124C843.485 762.708 842.499 763 841.111 763H794.438ZM925.414 742.293C925.414 745.653 924.902 748.721 923.88 751.496C922.93 754.199 921.177 756.536 918.621 758.508C916.138 760.407 912.668 761.904 908.213 763C903.83 764.096 898.243 764.643 891.45 764.643C884.657 764.643 879.033 764.096 874.578 763C870.123 761.904 866.617 760.407 864.06 758.508C861.577 756.536 859.824 754.199 858.801 751.496C857.852 748.721 857.377 745.653 857.377 742.293V704.933C857.377 701.573 857.852 698.542 858.801 695.84C859.824 693.064 861.577 690.691 864.06 688.718C866.617 686.746 870.123 685.213 874.578 684.117C879.033 683.021 884.657 682.474 891.45 682.474C898.243 682.474 903.83 683.021 908.213 684.117C912.668 685.213 916.138 686.746 918.621 688.718C921.177 690.691 922.93 693.064 923.88 695.84C924.902 698.542 925.414 701.573 925.414 704.933V742.293ZM882.247 738.349C882.247 739.81 882.795 741.052 883.891 742.074C884.986 743.024 887.506 743.498 891.45 743.498C895.394 743.498 897.914 743.024 899.01 742.074C900.105 741.052 900.653 739.81 900.653 738.349V708.877C900.653 707.49 900.105 706.321 899.01 705.372C897.914 704.349 895.394 703.838 891.45 703.838C887.506 703.838 884.986 704.349 883.891 705.372C882.795 706.321 882.247 707.49 882.247 708.877V738.349ZM959.739 763H943.305C941.918 763 940.895 762.708 940.238 762.124C939.653 761.466 939.361 760.444 939.361 759.056V688.061C939.361 686.673 939.653 685.687 940.238 685.103C940.895 684.446 941.918 684.117 943.305 684.117H954.7C956.087 684.117 957.256 684.336 958.205 684.774C959.228 685.213 960.214 685.979 961.164 687.075L982.418 711.397V688.061C982.418 686.673 982.71 685.687 983.295 685.103C983.952 684.446 984.975 684.117 986.362 684.117H1002.8C1004.18 684.117 1005.17 684.446 1005.75 685.103C1006.41 685.687 1006.74 686.673 1006.74 688.061V759.056C1006.74 760.444 1006.41 761.466 1005.75 762.124C1005.17 762.708 1004.18 763 1002.8 763H986.362C984.975 763 983.952 762.708 983.295 762.124C982.71 761.466 982.418 760.444 982.418 759.056V745.58L963.683 722.901V759.056C963.683 760.444 963.355 761.466 962.697 762.124C962.113 762.708 961.127 763 959.739 763ZM1058.45 763H1023.82C1022.44 763 1021.41 762.708 1020.76 762.124C1020.17 761.466 1019.88 760.444 1019.88 759.056V746.237C1019.88 744.85 1020.17 743.864 1020.76 743.279C1021.41 742.622 1022.44 742.293 1023.82 742.293H1053.3C1054.25 742.293 1054.94 742.001 1055.38 741.417C1055.89 740.759 1056.14 739.992 1056.14 739.116C1056.14 737.874 1055.89 736.961 1055.38 736.377C1054.94 735.793 1054.25 735.464 1053.3 735.391L1036.86 733.09C1031.75 732.36 1027.62 730.68 1024.48 728.05C1021.41 725.421 1019.88 721.039 1019.88 714.903V703.399C1019.88 697.191 1021.89 692.443 1025.91 689.157C1029.92 685.797 1035.47 684.117 1042.56 684.117H1073.24C1074.62 684.117 1075.61 684.446 1076.19 685.103C1076.85 685.687 1077.18 686.673 1077.18 688.061V701.099C1077.18 702.486 1076.85 703.509 1076.19 704.166C1075.61 704.751 1074.62 705.043 1073.24 705.043H1047.71C1046.76 705.043 1046.03 705.372 1045.52 706.029C1045.01 706.613 1044.75 707.38 1044.75 708.33C1044.75 709.279 1045.01 710.083 1045.52 710.74C1046.03 711.397 1046.76 711.763 1047.71 711.836L1064.03 714.027C1069.15 714.757 1073.27 716.437 1076.41 719.067C1079.55 721.696 1081.12 726.078 1081.12 732.214V743.717C1081.12 749.926 1079.08 754.71 1074.99 758.07C1070.97 761.357 1065.46 763 1058.45 763Z" fill="#FFF3EB"/>
<rect y="879" width="704" height="232" rx="31.4762" fill="#1C81CE"/>
<rect x="25" y="904" width="654" height="182" rx="12" fill="#1C0D03"/>
<path d="M135.477 1034H83.3265C81.9388 1034 80.9162 1033.71 80.2589 1033.12C79.6746 1032.47 79.3824 1031.44 79.3824 1030.06V1011.21C79.3824 1006.98 79.7841 1003.51 80.5876 1000.8C81.464 998.028 82.6692 995.764 84.203 994.011C85.7369 992.258 87.5629 990.87 89.681 989.847C91.7992 988.825 94.0999 987.948 96.5833 987.218L111.264 982.616C112.433 982.324 113.2 981.886 113.565 981.302C114.003 980.717 114.222 979.841 114.222 978.672C114.222 977.577 114.003 976.846 113.565 976.481C113.127 976.043 112.36 975.824 111.264 975.824H87.4898C86.1021 975.824 85.0795 975.532 84.4221 974.947C83.8378 974.29 83.5457 973.267 83.5457 971.88V959.061C83.5457 957.673 83.8378 956.687 84.4221 956.103C85.0795 955.446 86.1021 955.117 87.4898 955.117H119.81C126.018 955.117 130.766 956.687 134.053 959.828C137.413 962.896 139.093 967.388 139.093 973.304V983.602C139.093 989.08 137.559 993.28 134.491 996.202C131.423 999.123 127.26 1001.39 122.001 1002.99L107.101 1007.71C106.005 1008 105.239 1008.33 104.8 1008.69C104.435 1009.06 104.252 1009.82 104.252 1010.99V1013.29H135.477C136.865 1013.29 137.851 1013.62 138.435 1014.28C139.093 1014.86 139.421 1015.85 139.421 1017.24V1030.06C139.421 1031.44 139.093 1032.47 138.435 1033.12C137.851 1033.71 136.865 1034 135.477 1034ZM198.067 1034H181.085C179.697 1034 178.674 1033.71 178.017 1033.12C177.433 1032.47 177.141 1031.44 177.141 1030.06V959.061C177.141 957.673 177.433 956.687 178.017 956.103C178.674 955.446 179.697 955.117 181.085 955.117H214.61C224.543 955.117 231.336 957.089 234.988 961.033C238.64 964.977 240.466 970.127 240.466 976.481V990.505C240.466 996.859 238.64 1002.01 234.988 1005.95C231.336 1009.9 224.543 1011.87 214.61 1011.87H202.011V1030.06C202.011 1031.44 201.682 1032.47 201.025 1033.12C200.44 1033.71 199.454 1034 198.067 1034ZM201.792 975.605V992.148H211.652C213.77 992.148 215.158 991.6 215.815 990.505C216.473 989.409 216.801 988.167 216.801 986.78V980.973C216.801 979.585 216.473 978.344 215.815 977.248C215.158 976.152 213.77 975.605 211.652 975.605H201.792ZM279.346 978.124L274.197 994.778H291.398L286.248 978.124C285.956 977.467 285.628 976.992 285.262 976.7C284.97 976.408 284.605 976.262 284.167 976.262H281.428C280.99 976.262 280.588 976.408 280.223 976.7C279.931 976.992 279.638 977.467 279.346 978.124ZM273.101 1030.06C273.101 1031.44 272.773 1032.47 272.115 1033.12C271.531 1033.71 270.545 1034 269.157 1034H253.052C251.664 1034 250.642 1033.71 249.984 1033.12C249.4 1032.47 249.108 1031.44 249.108 1030.06V1001.13C249.108 998.941 249.436 996.421 250.094 993.572C250.824 990.724 251.92 987.401 253.381 983.602L262.912 958.732C263.35 957.491 264.008 956.578 264.884 955.993C265.834 955.409 267.039 955.117 268.5 955.117H297.971C299.359 955.117 300.491 955.409 301.368 955.993C302.317 956.578 303.011 957.491 303.449 958.732L312.981 983.602C314.442 987.401 315.501 990.724 316.158 993.572C316.889 996.421 317.254 998.941 317.254 1001.13V1030.06C317.254 1031.44 316.925 1032.47 316.268 1033.12C315.684 1033.71 314.698 1034 313.31 1034H296.766C295.305 1034 294.21 1033.71 293.479 1033.12C292.822 1032.47 292.493 1031.44 292.493 1030.06V1014.72H273.101V1030.06ZM351.159 1034H334.725C333.338 1034 332.315 1033.71 331.658 1033.12C331.073 1032.47 330.781 1031.44 330.781 1030.06V959.061C330.781 957.673 331.073 956.687 331.658 956.103C332.315 955.446 333.338 955.117 334.725 955.117H346.12C347.507 955.117 348.676 955.336 349.625 955.774C350.648 956.213 351.634 956.979 352.584 958.075L373.838 982.397V959.061C373.838 957.673 374.13 956.687 374.715 956.103C375.372 955.446 376.395 955.117 377.782 955.117H394.216C395.604 955.117 396.59 955.446 397.174 956.103C397.832 956.687 398.16 957.673 398.16 959.061V1030.06C398.16 1031.44 397.832 1032.47 397.174 1033.12C396.59 1033.71 395.604 1034 394.216 1034H377.782C376.395 1034 375.372 1033.71 374.715 1033.12C374.13 1032.47 373.838 1031.44 373.838 1030.06V1016.58L355.103 993.901V1030.06C355.103 1031.44 354.775 1032.47 354.117 1033.12C353.533 1033.71 352.547 1034 351.159 1034ZM468.052 1034H417.216C415.828 1034 414.806 1033.71 414.148 1033.12C413.564 1032.47 413.272 1031.44 413.272 1030.06V959.061C413.272 957.673 413.564 956.687 414.148 956.103C414.806 955.446 415.828 955.117 417.216 955.117H468.052C469.44 955.117 470.426 955.446 471.01 956.103C471.667 956.687 471.996 957.673 471.996 959.061V971.88C471.996 973.267 471.667 974.29 471.01 974.947C470.426 975.532 469.44 975.824 468.052 975.824H437.813V984.26H459.178C460.565 984.26 461.551 984.589 462.136 985.246C462.793 985.83 463.122 986.816 463.122 988.204V999.927C463.122 1001.31 462.793 1002.34 462.136 1002.99C461.551 1003.58 460.565 1003.87 459.178 1003.87H437.813V1013.29H468.052C469.44 1013.29 470.426 1013.62 471.01 1014.28C471.667 1014.86 471.996 1015.85 471.996 1017.24V1030.06C471.996 1031.44 471.667 1032.47 471.01 1033.12C470.426 1033.71 469.44 1034 468.052 1034ZM544.667 1034H488.901C487.513 1034 486.491 1033.71 485.833 1033.12C485.249 1032.47 484.957 1031.44 484.957 1030.06V959.061C484.957 957.673 485.249 956.687 485.833 956.103C486.491 955.446 487.513 955.117 488.901 955.117H505.883C507.27 955.117 508.256 955.446 508.841 956.103C509.498 956.687 509.827 957.673 509.827 959.061V1013.29H524.836V995.544C524.836 994.157 525.129 993.171 525.713 992.586C526.37 991.929 527.393 991.6 528.781 991.6H544.667C546.055 991.6 547.041 991.929 547.625 992.586C548.282 993.171 548.611 994.157 548.611 995.544V1030.06C548.611 1031.44 548.282 1032.47 547.625 1033.12C547.041 1033.71 546.055 1034 544.667 1034ZM597.728 1034H563.107C561.719 1034 560.697 1033.71 560.039 1033.12C559.455 1032.47 559.163 1031.44 559.163 1030.06V1017.24C559.163 1015.85 559.455 1014.86 560.039 1014.28C560.697 1013.62 561.719 1013.29 563.107 1013.29H592.579C593.528 1013.29 594.222 1013 594.66 1012.42C595.172 1011.76 595.427 1010.99 595.427 1010.12C595.427 1008.87 595.172 1007.96 594.66 1007.38C594.222 1006.79 593.528 1006.46 592.579 1006.39L576.145 1004.09C571.032 1003.36 566.905 1001.68 563.764 999.05C560.697 996.421 559.163 992.039 559.163 985.903V974.399C559.163 968.191 561.171 963.443 565.189 960.157C569.206 956.797 574.757 955.117 581.842 955.117H612.519C613.906 955.117 614.892 955.446 615.477 956.103C616.134 956.687 616.463 957.673 616.463 959.061V972.099C616.463 973.486 616.134 974.509 615.477 975.166C614.892 975.751 613.906 976.043 612.519 976.043H586.991C586.042 976.043 585.311 976.372 584.8 977.029C584.289 977.613 584.033 978.38 584.033 979.33C584.033 980.279 584.289 981.083 584.8 981.74C585.311 982.397 586.042 982.763 586.991 982.836L603.316 985.027C608.428 985.757 612.555 987.437 615.696 990.067C618.836 992.696 620.407 997.078 620.407 1003.21V1014.72C620.407 1020.93 618.362 1025.71 614.271 1029.07C610.254 1032.36 604.74 1034 597.728 1034Z" fill="#FFF3EB"/>
<rect x="314" y="1153" width="779" height="232" rx="31.4762" fill="#1C81CE"/>
<rect x="339" y="1178" width="729" height="182" rx="12" fill="#1C0D03"/>
<path d="M446.628 1308H398.203C396.815 1308 395.793 1307.71 395.135 1307.12C394.551 1306.47 394.259 1305.44 394.259 1304.06V1290.8C394.259 1289.41 394.551 1288.43 395.135 1287.84C395.793 1287.18 396.815 1286.85 398.203 1286.85H410.474V1250.26H400.394C399.006 1250.26 397.984 1249.97 397.327 1249.39C396.742 1248.73 396.45 1247.71 396.45 1246.32V1233.06C396.45 1231.67 396.742 1230.69 397.327 1230.1C397.984 1229.45 399.006 1229.12 400.394 1229.12H432.167C433.554 1229.12 434.54 1229.45 435.125 1230.1C435.782 1230.69 436.111 1231.67 436.111 1233.06V1286.85H446.628C448.016 1286.85 449.002 1287.18 449.587 1287.84C450.244 1288.43 450.573 1289.41 450.573 1290.8V1304.06C450.573 1305.44 450.244 1306.47 449.587 1307.12C449.002 1307.71 448.016 1308 446.628 1308ZM507.236 1308H490.912C489.524 1308 488.502 1307.71 487.844 1307.12C487.26 1306.47 486.968 1305.44 486.968 1304.06V1233.06C486.968 1231.67 487.26 1230.69 487.844 1230.1C488.502 1229.45 489.524 1229.12 490.912 1229.12H508.551C509.72 1229.12 510.669 1229.37 511.4 1229.88C512.203 1230.4 512.934 1231.24 513.591 1232.4L523.451 1250.26C523.817 1250.92 524.109 1251.39 524.328 1251.69C524.62 1251.98 524.985 1252.12 525.423 1252.12H526.409C526.848 1252.12 527.176 1251.98 527.395 1251.69C527.688 1251.39 528.016 1250.92 528.382 1250.26L538.132 1232.4C538.79 1231.24 539.484 1230.4 540.214 1229.88C541.017 1229.37 542.003 1229.12 543.172 1229.12H560.921C562.309 1229.12 563.295 1229.45 563.879 1230.1C564.536 1230.69 564.865 1231.67 564.865 1233.06V1304.06C564.865 1305.44 564.536 1306.47 563.879 1307.12C563.295 1307.71 562.309 1308 560.921 1308H544.049C542.661 1308 541.638 1307.71 540.981 1307.12C540.397 1306.47 540.104 1305.44 540.104 1304.06V1265.49L533.64 1277.43C532.983 1278.67 532.18 1279.59 531.23 1280.17C530.354 1280.68 529.221 1280.94 527.834 1280.94H523.451C522.064 1280.94 520.895 1280.68 519.945 1280.17C519.069 1279.59 518.302 1278.67 517.645 1277.43L511.181 1265.49V1304.06C511.181 1305.44 510.852 1306.47 510.195 1307.12C509.61 1307.71 508.624 1308 507.236 1308ZM647.104 1287.29C647.104 1290.65 646.593 1293.72 645.57 1296.5C644.621 1299.2 642.868 1301.54 640.311 1303.51C637.828 1305.41 634.395 1306.9 630.013 1308C625.63 1309.1 620.043 1309.64 613.25 1309.64C606.457 1309.64 600.87 1309.1 596.488 1308C592.105 1306.9 588.636 1305.41 586.079 1303.51C583.596 1301.54 581.843 1299.2 580.82 1296.5C579.871 1293.72 579.396 1290.65 579.396 1287.29V1233.06C579.396 1231.67 579.688 1230.69 580.273 1230.1C580.93 1229.45 581.953 1229.12 583.34 1229.12H600.541C601.929 1229.12 602.915 1229.45 603.499 1230.1C604.157 1230.69 604.485 1231.67 604.485 1233.06V1283.02C604.485 1284.48 605.033 1285.72 606.129 1286.75C607.224 1287.69 609.671 1288.17 613.469 1288.17C617.34 1288.17 619.824 1287.69 620.919 1286.75C622.015 1285.72 622.563 1284.48 622.563 1283.02V1233.06C622.563 1231.67 622.855 1230.69 623.439 1230.1C624.097 1229.45 625.119 1229.12 626.507 1229.12H643.16C644.548 1229.12 645.534 1229.45 646.118 1230.1C646.775 1230.69 647.104 1231.67 647.104 1233.06V1287.29ZM698.279 1308H663.658C662.27 1308 661.248 1307.71 660.59 1307.12C660.006 1306.47 659.714 1305.44 659.714 1304.06V1291.24C659.714 1289.85 660.006 1288.86 660.59 1288.28C661.248 1287.62 662.27 1287.29 663.658 1287.29H693.13C694.079 1287.29 694.773 1287 695.211 1286.42C695.722 1285.76 695.978 1284.99 695.978 1284.12C695.978 1282.87 695.722 1281.96 695.211 1281.38C694.773 1280.79 694.079 1280.46 693.13 1280.39L676.696 1278.09C671.583 1277.36 667.456 1275.68 664.315 1273.05C661.248 1270.42 659.714 1266.04 659.714 1259.9V1248.4C659.714 1242.19 661.722 1237.44 665.74 1234.16C669.757 1230.8 675.308 1229.12 682.393 1229.12H713.069C714.457 1229.12 715.443 1229.45 716.028 1230.1C716.685 1230.69 717.014 1231.67 717.014 1233.06V1246.1C717.014 1247.49 716.685 1248.51 716.028 1249.17C715.443 1249.75 714.457 1250.04 713.069 1250.04H687.542C686.592 1250.04 685.862 1250.37 685.351 1251.03C684.84 1251.61 684.584 1252.38 684.584 1253.33C684.584 1254.28 684.84 1255.08 685.351 1255.74C685.862 1256.4 686.592 1256.76 687.542 1256.84L703.866 1259.03C708.979 1259.76 713.106 1261.44 716.247 1264.07C719.387 1266.7 720.958 1271.08 720.958 1277.21V1288.72C720.958 1294.93 718.913 1299.71 714.822 1303.07C710.805 1306.36 705.291 1308 698.279 1308ZM735.134 1308C733.746 1308 732.723 1307.71 732.066 1307.12C731.482 1306.47 731.19 1305.44 731.19 1304.06V1291.02C731.19 1289.63 731.482 1288.64 732.066 1288.06C732.723 1287.4 733.746 1287.07 735.134 1287.07H745.98V1250.26H735.134C733.746 1250.26 732.723 1249.97 732.066 1249.39C731.482 1248.73 731.19 1247.71 731.19 1246.32V1233.06C731.19 1231.67 731.482 1230.69 732.066 1230.1C732.723 1229.45 733.746 1229.12 735.134 1229.12H781.806C783.194 1229.12 784.18 1229.45 784.764 1230.1C785.422 1230.69 785.75 1231.67 785.75 1233.06V1246.32C785.75 1247.71 785.422 1248.73 784.764 1249.39C784.18 1249.97 783.194 1250.26 781.806 1250.26H771.179V1287.07H781.806C783.194 1287.07 784.18 1287.4 784.764 1288.06C785.422 1288.64 785.75 1289.63 785.75 1291.02V1304.06C785.75 1305.44 785.422 1306.47 784.764 1307.12C784.18 1307.71 783.194 1308 781.806 1308H735.134ZM851.757 1308H825.024C815.894 1308 809.101 1306.17 804.646 1302.52C800.264 1298.87 798.072 1293.25 798.072 1285.65V1251.58C798.072 1243.98 800.264 1238.36 804.646 1234.7C809.101 1230.98 815.894 1229.12 825.024 1229.12H851.757C853.145 1229.12 854.131 1229.45 854.715 1230.1C855.372 1230.69 855.701 1231.67 855.701 1233.06V1246.32C855.701 1247.71 855.372 1248.73 854.715 1249.39C854.131 1249.97 853.145 1250.26 851.757 1250.26H829.735C827.471 1250.26 825.791 1250.74 824.696 1251.69C823.6 1252.56 823.052 1253.91 823.052 1255.74V1281.82C823.052 1283.64 823.6 1284.99 824.696 1285.87C825.791 1286.67 827.471 1287.07 829.735 1287.07H851.757C853.145 1287.07 854.131 1287.4 854.715 1288.06C855.372 1288.64 855.701 1289.63 855.701 1291.02V1304.06C855.701 1305.44 855.372 1306.47 854.715 1307.12C854.131 1307.71 853.145 1308 851.757 1308ZM896.669 1252.12L891.519 1268.78H908.72L903.571 1252.12C903.279 1251.47 902.95 1250.99 902.585 1250.7C902.293 1250.41 901.928 1250.26 901.489 1250.26H898.75C898.312 1250.26 897.91 1250.41 897.545 1250.7C897.253 1250.99 896.961 1251.47 896.669 1252.12ZM890.424 1304.06C890.424 1305.44 890.095 1306.47 889.438 1307.12C888.853 1307.71 887.867 1308 886.48 1308H870.374C868.987 1308 867.964 1307.71 867.307 1307.12C866.722 1306.47 866.43 1305.44 866.43 1304.06V1275.13C866.43 1272.94 866.759 1270.42 867.416 1267.57C868.147 1264.72 869.242 1261.4 870.703 1257.6L880.235 1232.73C880.673 1231.49 881.33 1230.58 882.207 1229.99C883.156 1229.41 884.361 1229.12 885.822 1229.12H915.294C916.682 1229.12 917.814 1229.41 918.69 1229.99C919.64 1230.58 920.334 1231.49 920.772 1232.73L930.304 1257.6C931.764 1261.4 932.823 1264.72 933.481 1267.57C934.211 1270.42 934.576 1272.94 934.576 1275.13V1304.06C934.576 1305.44 934.248 1306.47 933.59 1307.12C933.006 1307.71 932.02 1308 930.632 1308H914.089C912.628 1308 911.532 1307.71 910.802 1307.12C910.144 1306.47 909.816 1305.44 909.816 1304.06V1288.72H890.424V1304.06ZM1007.81 1308H952.048C950.66 1308 949.637 1307.71 948.98 1307.12C948.396 1306.47 948.104 1305.44 948.104 1304.06V1233.06C948.104 1231.67 948.396 1230.69 948.98 1230.1C949.637 1229.45 950.66 1229.12 952.048 1229.12H969.029C970.417 1229.12 971.403 1229.45 971.988 1230.1C972.645 1230.69 972.974 1231.67 972.974 1233.06V1287.29H987.983V1269.54C987.983 1268.16 988.275 1267.17 988.86 1266.59C989.517 1265.93 990.54 1265.6 991.927 1265.6H1007.81C1009.2 1265.6 1010.19 1265.93 1010.77 1266.59C1011.43 1267.17 1011.76 1268.16 1011.76 1269.54V1304.06C1011.76 1305.44 1011.43 1306.47 1010.77 1307.12C1010.19 1307.71 1009.2 1308 1007.81 1308Z" fill="#FFF3EB"/>
<rect x="763" y="1062" width="128" height="37" rx="18.5" transform="rotate(-90 763 1062)" fill="#1C0D03"/>
<rect x="819" y="1062" width="128" height="37" rx="18.5" transform="rotate(-90 819 1062)" fill="#2F91DC"/>
<path d="M754.681 223.572L828.572 149.681C841.48 136.773 862.411 136.773 875.319 149.681C888.227 162.589 888.227 183.52 875.319 196.428L801.428 270.319C788.52 283.227 767.589 283.227 754.681 270.319C741.773 257.407 741.773 236.48 754.681 223.572Z" fill="#D9B682"/>
<path d="M760.557 245C762.704 245 764.445 243.259 764.445 241.112C764.445 238.964 762.704 237.224 760.557 237.224C758.41 237.224 756.669 238.964 756.669 241.112C756.669 243.259 758.41 245 760.557 245Z" fill="#C18D4F"/>
<path d="M772.225 256.663C774.372 256.663 776.113 254.923 776.113 252.775C776.113 250.628 774.372 248.887 772.225 248.887C770.077 248.887 768.337 250.628 768.337 252.775C768.337 254.923 770.077 256.663 772.225 256.663Z" fill="#C18D4F"/>
<path d="M783.888 268.331C786.036 268.331 787.776 266.59 787.776 264.443C787.776 262.296 786.036 260.555 783.888 260.555C781.741 260.555 780 262.296 780 264.443C780 266.59 781.741 268.331 783.888 268.331Z" fill="#C18D4F"/>
<path d="M772.225 233.332C774.372 233.332 776.113 231.591 776.113 229.444C776.113 227.296 774.372 225.556 772.225 225.556C770.077 225.556 768.337 227.296 768.337 229.444C768.337 231.591 770.077 233.332 772.225 233.332Z" fill="#C18D4F"/>
<path d="M783.888 245C786.036 245 787.776 243.259 787.776 241.112C787.776 238.964 786.036 237.224 783.888 237.224C781.741 237.224 780 238.964 780 241.112C780 243.259 781.741 245 783.888 245Z" fill="#C18D4F"/>
<path d="M795.556 256.663C797.703 256.663 799.444 254.923 799.444 252.775C799.444 250.628 797.703 248.887 795.556 248.887C793.409 248.887 791.668 250.628 791.668 252.775C791.668 254.923 793.409 256.663 795.556 256.663Z" fill="#C18D4F"/>
<path d="M830.584 166.757C830.84 164.625 832.776 163.105 834.907 163.361C837.039 163.617 838.559 165.553 838.303 167.685C838.047 169.817 836.111 171.337 833.98 171.081C831.848 170.829 830.328 168.893 830.584 166.757Z" fill="#C18D4F"/>
<path d="M846.111 182.776C848.258 182.776 849.999 181.036 849.999 178.888C849.999 176.741 848.258 175 846.111 175C843.964 175 842.223 176.741 842.223 178.888C842.223 181.036 843.964 182.776 846.111 182.776Z" fill="#C18D4F"/>
<path d="M857.775 194.444C859.922 194.444 861.663 192.704 861.663 190.556C861.663 188.409 859.922 186.668 857.775 186.668C855.628 186.668 853.887 188.409 853.887 190.556C853.887 192.704 855.628 194.444 857.775 194.444Z" fill="#C18D4F"/>
<path d="M846.111 159.445C848.258 159.445 849.999 157.704 849.999 155.557C849.999 153.41 848.258 151.669 846.111 151.669C843.964 151.669 842.223 153.41 842.223 155.557C842.223 157.704 843.964 159.445 846.111 159.445Z" fill="#C18D4F"/>
<path d="M857.775 171.113C859.922 171.113 861.663 169.372 861.663 167.225C861.663 165.077 859.922 163.337 857.775 163.337C855.628 163.337 853.887 165.077 853.887 167.225C853.887 169.372 855.628 171.113 857.775 171.113Z" fill="#C18D4F"/>
<path d="M869.443 182.776C871.59 182.776 873.331 181.036 873.331 178.888C873.331 176.741 871.59 175 869.443 175C867.296 175 865.555 176.741 865.555 178.888C865.555 181.036 867.296 182.776 869.443 182.776Z" fill="#C18D4F"/>
<path d="M770.281 208.056L813.048 165.277L859.719 211.944L816.944 254.719L770.281 208.056Z" fill="#EAD3A7"/>
<path d="M782.196 211.692C781.2 211.692 780.204 211.312 779.448 210.552C777.928 209.032 777.928 206.572 779.448 205.052L810.308 174.192C811.828 172.672 814.288 172.672 815.808 174.192C817.328 175.712 817.328 178.172 815.808 179.692L784.948 210.552C784.184 211.316 783.192 211.692 782.196 211.692V211.692Z" fill="#F7EBD5"/>
<path d="M176.681 83.5718L250.572 9.68086C263.48 -3.22695 284.411 -3.22695 297.319 9.68086C310.227 22.5887 310.227 43.5204 297.319 56.4282L223.428 130.319C210.52 143.227 189.589 143.227 176.681 130.319C163.773 117.407 163.773 96.4796 176.681 83.5718Z" fill="#D9B682"/>
<path d="M182.557 105C184.704 105 186.445 103.259 186.445 101.112C186.445 98.9644 184.704 97.2238 182.557 97.2238C180.41 97.2238 178.669 98.9644 178.669 101.112C178.669 103.259 180.41 105 182.557 105Z" fill="#C18D4F"/>
<path d="M194.225 116.663C196.372 116.663 198.113 114.923 198.113 112.776C198.113 110.628 196.372 108.888 194.225 108.888C192.077 108.888 190.337 110.628 190.337 112.776C190.337 114.923 192.077 116.663 194.225 116.663Z" fill="#C18D4F"/>
<path d="M205.888 128.331C208.036 128.331 209.776 126.591 209.776 124.443C209.776 122.296 208.036 120.555 205.888 120.555C203.741 120.555 202 122.296 202 124.443C202 126.591 203.741 128.331 205.888 128.331Z" fill="#C18D4F"/>
<path d="M194.225 93.3318C196.372 93.3318 198.113 91.5911 198.113 89.4439C198.113 87.2966 196.372 85.5559 194.225 85.5559C192.077 85.5559 190.337 87.2966 190.337 89.4439C190.337 91.5911 192.077 93.3318 194.225 93.3318Z" fill="#C18D4F"/>
<path d="M205.888 105C208.036 105 209.776 103.259 209.776 101.112C209.776 98.9644 208.036 97.2238 205.888 97.2238C203.741 97.2238 202 98.9644 202 101.112C202 103.259 203.741 105 205.888 105Z" fill="#C18D4F"/>
<path d="M217.556 116.663C219.703 116.663 221.444 114.923 221.444 112.776C221.444 110.628 219.703 108.888 217.556 108.888C215.409 108.888 213.668 110.628 213.668 112.776C213.668 114.923 215.409 116.663 217.556 116.663Z" fill="#C18D4F"/>
<path d="M252.584 26.7568C252.84 24.6249 254.776 23.1049 256.907 23.3609C259.039 23.6169 260.559 25.5529 260.303 27.6848C260.047 29.8168 258.111 31.3368 255.98 31.0808C253.848 30.8288 252.328 28.8928 252.584 26.7568Z" fill="#C18D4F"/>
<path d="M268.111 42.7764C270.258 42.7764 271.999 41.0357 271.999 38.8884C271.999 36.7412 270.258 35.0005 268.111 35.0005C265.964 35.0005 264.223 36.7412 264.223 38.8884C264.223 41.0357 265.964 42.7764 268.111 42.7764Z" fill="#C18D4F"/>
<path d="M279.775 54.4443C281.922 54.4443 283.663 52.7037 283.663 50.5564C283.663 48.4091 281.922 46.6685 279.775 46.6685C277.628 46.6685 275.887 48.4091 275.887 50.5564C275.887 52.7037 277.628 54.4443 279.775 54.4443Z" fill="#C18D4F"/>
<path d="M268.111 19.4448C270.258 19.4448 271.999 17.7041 271.999 15.5569C271.999 13.4096 270.258 11.6689 268.111 11.6689C265.964 11.6689 264.223 13.4096 264.223 15.5569C264.223 17.7041 265.964 19.4448 268.111 19.4448Z" fill="#C18D4F"/>
<path d="M279.775 31.1126C281.922 31.1126 283.663 29.3719 283.663 27.2246C283.663 25.0774 281.922 23.3367 279.775 23.3367C277.628 23.3367 275.887 25.0774 275.887 27.2246C275.887 29.3719 277.628 31.1126 279.775 31.1126Z" fill="#C18D4F"/>
<path d="M291.443 42.7764C293.59 42.7764 295.331 41.0357 295.331 38.8884C295.331 36.7412 293.59 35.0005 291.443 35.0005C289.296 35.0005 287.555 36.7412 287.555 38.8884C287.555 41.0357 289.296 42.7764 291.443 42.7764Z" fill="#C18D4F"/>
<path d="M192.281 68.056L235.048 25.2766L281.719 71.9439L238.944 114.719L192.281 68.056Z" fill="#EAD3A7"/>
<path d="M204.196 71.6919C203.2 71.6919 202.204 71.3119 201.448 70.5519C199.928 69.032 199.928 66.572 201.448 65.052L232.308 34.1925C233.828 32.6725 236.288 32.6725 237.808 34.1925C239.328 35.7125 239.328 38.1724 237.808 39.6924L206.948 70.5519C206.184 71.3159 205.192 71.6919 204.196 71.6919V71.6919Z" fill="#F7EBD5"/>
<path d="M1036.64 650.537L951.463 565.36C947.359 561.254 944 562.645 944 568.45V647.445C944 653.25 948.75 658 954.555 658H1033.55C1039.36 658 1040.75 654.643 1036.64 650.537ZM988.774 636.889H970.389C967.486 636.889 965.111 634.514 965.111 631.611V613.224C965.111 610.321 966.792 609.627 968.842 611.677L990.32 633.158C992.37 635.208 991.674 636.889 988.774 636.889V636.889Z" fill="#FFCC4D"/>
<path d="M796.171 434.707C796.171 438.829 792.829 442.171 788.707 442.171H736.463C732.342 442.171 729 438.829 729 434.707V382.463C729 378.342 732.342 375 736.463 375H788.707C792.829 375 796.171 378.342 796.171 382.463V434.707Z" fill="#3B88C3"/>
<path d="M772.075 421.473C774.622 421.473 776.59 422.63 776.59 425.29C776.59 427.953 774.622 429.11 772.424 429.11H753.101C750.556 429.11 748.59 427.953 748.59 425.29C748.59 424.077 749.342 423.034 749.92 422.34C754.721 416.614 759.928 411.406 764.326 405.042C765.367 403.538 766.351 401.743 766.351 399.661C766.351 397.289 764.558 395.207 762.184 395.207C755.531 395.207 758.714 404.579 753.159 404.579C750.383 404.579 748.935 402.613 748.935 400.355C748.935 393.067 755.415 387.223 762.531 387.223C769.649 387.223 775.374 391.91 775.374 399.256C775.374 407.296 766.409 415.282 761.49 421.471H772.075V421.473Z" fill="white"/>
<path d="M873.341 434.707C873.341 438.829 870 442.171 865.878 442.171H813.634C809.512 442.171 806.171 438.829 806.171 434.707V382.463C806.171 378.342 809.512 375 813.634 375H865.878C870 375 873.341 378.342 873.341 382.463V434.707Z" fill="#43A4EF"/>
<path d="M825.238 415.457C825.238 406.721 834.089 394.457 839.931 389.018C840.394 388.555 841.088 388.093 841.782 387.63C842.419 387.225 843.057 387.225 843.519 387.225C845.137 387.225 847.626 389.365 847.626 391.449C847.626 392.259 847.106 392.953 846.411 393.821C844.098 396.655 840.338 400.357 838.428 403.077L838.543 403.193C839.584 402.73 840.915 402.499 842.189 402.499C849.132 402.499 854.278 408.632 854.278 415.457C854.278 422.977 848.318 429.806 839.756 429.806C830.85 429.804 825.238 423.152 825.238 415.457V415.457ZM834.263 415.457C834.263 418.696 836.287 421.475 839.758 421.475C843.057 421.475 845.255 418.812 845.255 415.457C845.255 412.392 843.404 409.44 839.758 409.44C836.461 409.44 834.263 412.045 834.263 415.457V415.457Z" fill="white"/>
<path d="M796.171 511.878C796.171 516 792.829 519.342 788.707 519.342H736.463C732.342 519.342 729 516 729 511.878V459.634C729 455.513 732.342 452.171 736.463 452.171H788.707C792.829 452.171 796.171 455.513 796.171 459.634V511.878Z" fill="#43A4EF"/>
<path d="M772.075 498.644C774.622 498.644 776.59 499.8 776.59 502.461C776.59 505.124 774.622 506.281 772.424 506.281H753.101C750.556 506.281 748.59 505.124 748.59 502.461C748.59 501.248 749.342 500.205 749.92 499.511C754.721 493.785 759.928 488.577 764.326 482.213C765.367 480.709 766.351 478.914 766.351 476.832C766.351 474.46 764.558 472.378 762.184 472.378C755.531 472.378 758.714 481.75 753.159 481.75C750.383 481.75 748.935 479.784 748.935 477.526C748.935 470.238 755.415 464.394 762.531 464.394C769.649 464.394 775.374 469.081 775.374 476.427C775.374 484.467 766.409 492.453 761.49 498.642H772.075V498.644Z" fill="white"/>
<path d="M873.341 511.877C873.341 515.999 869.999 519.341 865.877 519.341H813.634C809.512 519.341 806.171 515.999 806.171 511.877V459.634C806.171 455.512 809.512 452.171 813.634 452.171H865.877C869.999 452.171 873.341 455.512 873.341 459.634V511.877Z" fill="#3B88C3"/>
<path d="M844.153 473.074H829.344C826.221 473.074 825.064 471.049 825.064 469.083C825.064 467.058 826.163 465.09 829.344 465.09H850.286C853.238 465.09 854.453 467.751 854.453 469.254C854.453 470.411 853.816 471.626 853.122 473.072L838.774 502.229C837.155 505.468 836.518 506.623 833.915 506.623C830.734 506.623 829.113 504.194 829.113 502.517C829.113 501.823 829.286 501.304 829.693 500.492L844.153 473.074Z" fill="white"/>
<path d="M291.472 820.866C287.438 809.391 274.868 803.362 263.393 807.397C260.432 808.438 255.685 812.071 255.685 812.071L217.459 830.216C217.459 830.216 207.561 828.324 202.522 830.096C191.045 834.132 185.015 846.702 189.05 858.177C189.302 858.893 189.587 859.588 189.902 860.262C200.661 887.272 230.867 901.243 258.543 891.511C286.939 881.526 301.863 850.414 291.878 822.018C291.822 821.861 291.743 821.722 291.679 821.568C291.607 821.335 291.554 821.099 291.472 820.866Z" fill="#FFCB4C"/>
<path d="M271.555 811.327C268.45 811.589 268.914 813.567 265.157 814.412C261.479 815.24 265.669 811.721 263.406 811.317C262.644 811.181 261.707 811.425 260.634 811.959C257.59 813.468 209.938 831.634 208.449 833.13C207.125 834.459 206.494 835.68 204.57 834.837C202.149 833.779 199.883 835.676 199.326 836.508C198.61 837.582 198.917 839.105 201.392 840.121C203.717 840.731 207.365 840.94 213.104 839.941C213.735 839.832 214.257 839.692 214.738 839.543C218.492 838.363 217.187 833.007 222.379 831.025C225.783 829.726 257.248 822.4 259.624 821.184C259.914 821.034 260.224 820.891 260.593 820.761C265.32 819.099 267.96 823.098 271.783 817.9C273.306 815.417 275.508 810.99 271.555 811.327V811.327Z" fill="#F19020"/>
<path d="M193.471 823.03C199.701 826.028 204.692 829.772 208.449 833.133C211.256 835.643 213.392 837.95 214.738 839.547C218.493 838.366 218.251 836.035 223.443 834.052C226.847 832.754 229.653 834.482 232.683 834.98C238.1 835.869 239.676 830.04 243.154 828.817C245.725 827.913 251.149 830.107 253.572 827.75C257.083 824.33 257.25 822.409 259.625 821.19C259.758 818.455 260.063 815.273 260.637 811.968C261.467 807.177 262.878 802.124 265.302 797.778L193.474 823.036L193.471 823.03Z" fill="#F36C24"/>
<path d="M264.485 799.146C267.016 793.964 194.824 823.696 197.756 825.288C201.907 827.546 207.763 832.485 207.763 832.485C207.763 832.485 224.707 834.699 232.353 821.71C241.509 823.588 251.53 818.26 253.512 808.802C253.512 808.802 257.674 808.878 261.489 807.801C261.489 807.801 262.856 802.478 264.485 799.146V799.146Z" fill="#CE5C1F"/>
<path d="M255.978 884.217C263.214 881.672 266.722 872.907 263.815 864.639C260.908 856.371 252.685 851.731 245.449 854.276C238.214 856.82 234.705 865.585 237.612 873.853C240.52 882.121 248.742 886.761 255.978 884.217Z" fill="#65471B"/>
<path d="M230.074 849.208C231.641 853.663 230.201 858.227 226.862 859.401C223.52 860.576 219.544 857.917 217.977 853.462C216.411 849.008 217.848 844.445 221.189 843.269C224.528 842.095 228.508 844.754 230.074 849.208ZM266.366 836.444C267.932 840.898 266.495 845.461 263.153 846.636C259.811 847.812 255.835 845.152 254.268 840.697C252.703 836.246 254.142 831.679 257.48 830.505C260.823 829.332 264.8 831.992 266.366 836.444V836.444Z" fill="#65471B"/>
<path d="M263.914 779.942C263.188 780.197 262.549 780.575 261.955 781.001C258.975 779.178 255.259 778.612 251.706 779.861C251.442 779.954 251.216 780.102 250.962 780.211C247.863 778.491 244.091 778.009 240.483 779.278C235.931 780.878 232.907 784.793 232.137 789.233C230.242 787.188 227.249 786.341 224.452 787.324C222.28 788.088 220.736 789.793 220.046 791.813C216.946 787.908 211.643 786.164 206.677 787.91C202.676 789.317 199.91 792.631 198.989 796.469C198.402 796.577 197.814 796.685 197.234 796.889C192.903 798.412 190.049 802.174 189.393 806.415C188.739 806.516 188.086 806.661 187.439 806.888C181.801 808.871 178.839 815.047 180.821 820.685C182.803 826.322 188.98 829.285 194.617 827.303C196.396 826.677 197.881 825.615 199.047 824.301C200.484 824.754 202.066 824.789 203.599 824.25C204.038 824.095 204.444 823.898 204.83 823.671C208.882 826.932 214.438 828.119 219.706 826.266C224.875 824.448 228.461 820.18 229.667 815.229C232.782 817.131 236.666 817.719 240.377 816.415C245.866 814.484 249.122 809.132 248.701 803.595C248.805 803.562 248.908 803.556 249.011 803.52C249.867 803.219 250.669 802.832 251.417 802.378C253.986 803.364 256.887 803.527 259.688 802.542C263.238 801.293 265.786 798.525 266.965 795.239C267.695 795.2 268.429 795.094 269.155 794.839C273.268 793.393 275.431 788.884 273.985 784.771C272.539 780.658 268.027 778.496 263.914 779.942V779.942Z" fill="#CCD6DD"/>
<path d="M258.27 796.074C261.812 794.828 263.674 790.946 262.429 787.404C261.183 783.861 257.301 781.999 253.758 783.245C250.216 784.49 248.354 788.372 249.599 791.915C250.845 795.458 254.727 797.32 258.27 796.074Z" fill="#E1E8ED"/>
<path d="M232.209 798.492C230.94 794.884 226.986 792.985 223.378 794.254C222.265 794.645 221.338 795.315 220.594 796.127C219.196 794.576 216.953 793.927 214.857 794.664C213.142 795.267 211.933 796.661 211.483 798.291C208.794 797.119 205.685 796.887 202.7 797.937C197.392 799.803 194.26 805.016 194.755 810.375C193.26 809.653 191.491 809.501 189.8 810.095C186.44 811.277 184.673 814.96 185.855 818.32C187.036 821.68 190.719 823.447 194.079 822.265C196.206 821.518 197.685 819.771 198.193 817.737C200.906 820.456 204.809 821.775 208.718 821.101C210.61 822.712 213.262 823.326 215.775 822.442C219.023 821.3 220.928 818.068 220.536 814.787C221.707 814.987 222.936 814.935 224.134 814.514C227.37 813.376 229.271 810.162 228.896 806.892C231.883 805.315 233.363 801.774 232.209 798.492V798.492Z" fill="#E1E8ED"/>
<path d="M1112.85 1176.23C1108.68 1194.54 1090.46 1206.01 1072.15 1201.85C1053.84 1197.68 1042.38 1179.46 1046.54 1161.15C1050.7 1142.84 1068.92 1131.38 1087.23 1135.54C1105.54 1139.7 1117.01 1157.92 1112.85 1176.23Z" fill="#FFCC4D"/>
<path fill-rule="evenodd" clip-rule="evenodd" d="M1051.75 1148.81C1052.09 1149.35 1053.99 1151.18 1054.13 1152.6C1054.28 1154.02 1053.46 1161.71 1055.6 1164.52C1057.82 1167.41 1068.31 1168.91 1070.51 1168.38C1075.43 1167.18 1077.36 1161.16 1078.85 1158.22C1079.69 1156.56 1082.34 1157.16 1082.34 1157.16C1082.34 1157.16 1084.99 1157.76 1085.03 1159.62C1085.11 1162.92 1084.25 1169.19 1088.17 1172.39C1089.92 1173.82 1100.03 1177.01 1103.28 1175.36C1106.42 1173.76 1109.01 1166.47 1109.75 1165.25C1110.49 1164.03 1113 1163.21 1113.54 1162.87C1114.09 1162.53 1114.49 1160.76 1114.14 1160.22C1113.46 1159.14 1103.22 1155.99 1091.73 1154.66C1089.44 1154.4 1088.44 1154.84 1083.14 1153.64C1077.85 1152.43 1077.14 1151.6 1074.96 1150.85C1064.03 1147.07 1053.43 1145.49 1052.35 1146.17C1051.81 1146.51 1051.41 1148.27 1051.75 1148.81V1148.81Z" fill="#292F33"/>
<path d="M1094.53 1182.97C1094.27 1182.6 1093.78 1182.47 1093.37 1182.65C1093.29 1182.69 1084.93 1186.35 1076.13 1184.35C1067.35 1182.35 1061.38 1175.43 1061.32 1175.36C1061.03 1175.02 1060.54 1174.93 1060.14 1175.15C1059.75 1175.37 1059.56 1175.84 1059.7 1176.27C1059.85 1176.72 1063.43 1187.27 1074.88 1189.87C1086.32 1192.48 1094.11 1184.51 1094.44 1184.17C1094.75 1183.84 1094.79 1183.34 1094.53 1182.97V1182.97Z" fill="#664500"/>
<path d="M380.848 1209.17C298.802 1194.23 225.06 1245.26 210.127 1327.31L280.453 1340.11C287.902 1299.19 327.128 1272.04 368.048 1279.49L380.848 1209.17Z" fill="#7E6DE6"/>
<path d="M206.001 1326.56L218.554 1328.84C232.216 1253.78 304.093 1204 379.145 1217.56L381.43 1205.01C299.441 1190.18 220.924 1244.57 206.001 1326.56Z" fill="#FF7223"/>
<path d="M218.722 1328.88L231.102 1331.13C243.52 1262.91 308.842 1217.65 377.06 1229.98L379.313 1217.6C304.262 1204.03 232.384 1253.82 218.722 1328.88Z" fill="#FFAE73"/>
<path d="M231.102 1331.13L243.482 1333.38C254.655 1272 313.427 1231.28 374.807 1242.36L377.06 1229.98C308.842 1217.65 243.52 1262.91 231.102 1331.13Z" fill="#FFD671"/>
<path d="M243.482 1333.38L255.862 1335.63C265.79 1281.09 318.016 1244.9 372.553 1254.74L374.807 1242.36C313.427 1231.28 254.655 1272 243.482 1333.38Z" fill="#53C974"/>
<path d="M255.862 1335.63L268.242 1337.89C276.925 1290.18 322.599 1258.53 370.299 1267.12L372.553 1254.74C318.016 1244.9 265.79 1281.09 255.862 1335.63Z" fill="#32A1F0"/>
</svg>
