<svg width="1090" height="232" viewBox="0 0 1090 232" fill="none" xmlns="http://www.w3.org/2000/svg">
<rect y="152" width="18" height="1090" transform="rotate(-90 0 152)" fill="#3B88C3"/>
<rect y="134" width="19" height="1090" transform="rotate(-90 0 134)" fill="#3774A3"/>
<rect y="115" width="18" height="1090" transform="rotate(-90 0 115)" fill="#4AC9FF"/>
<rect y="97" width="18" height="1090" transform="rotate(-90 0 97)" fill="#1C5A7D"/>
<rect x="305" width="479" height="232" rx="31.4762" fill="#FF5B27"/>
<rect x="330" y="25" width="429" height="182" rx="12" fill="#1C0D03"/>
<path d="M428.425 155H391.504C390.116 155 389.093 154.708 388.436 154.124C387.852 153.466 387.56 152.444 387.56 151.056V80.0611C387.56 78.6733 387.852 77.6873 388.436 77.103C389.093 76.4456 390.116 76.1169 391.504 76.1169H428.425C437.555 76.1169 444.312 77.9429 448.694 81.5949C453.149 85.2469 455.377 90.871 455.377 98.4671V132.65C455.377 140.246 453.149 145.87 448.694 149.522C444.312 153.174 437.555 155 428.425 155ZM412.43 97.0428V134.293H425.467C427.22 134.293 428.498 133.855 429.302 132.978C430.178 132.102 430.617 130.751 430.617 128.925V102.302C430.617 100.476 430.178 99.161 429.302 98.3576C428.498 97.4811 427.22 97.0428 425.467 97.0428H412.43ZM497.897 99.1245L492.747 115.778H509.948L504.799 99.1245C504.507 98.4671 504.178 97.9924 503.813 97.7002C503.521 97.408 503.156 97.262 502.717 97.262H499.978C499.54 97.262 499.138 97.408 498.773 97.7002C498.481 97.9924 498.189 98.4671 497.897 99.1245ZM491.652 151.056C491.652 152.444 491.323 153.466 490.666 154.124C490.081 154.708 489.095 155 487.708 155H471.602C470.215 155 469.192 154.708 468.535 154.124C467.95 153.466 467.658 152.444 467.658 151.056V122.132C467.658 119.941 467.987 117.421 468.644 114.572C469.375 111.724 470.47 108.401 471.931 104.602L481.463 79.7324C481.901 78.4907 482.558 77.5777 483.435 76.9934C484.384 76.4091 485.589 76.1169 487.05 76.1169H516.522C517.91 76.1169 519.042 76.4091 519.918 76.9934C520.868 77.5777 521.562 78.4907 522 79.7324L531.532 104.602C532.992 108.401 534.051 111.724 534.709 114.572C535.439 117.421 535.804 119.941 535.804 122.132V151.056C535.804 152.444 535.476 153.466 534.818 154.124C534.234 154.708 533.248 155 531.86 155H515.317C513.856 155 512.76 154.708 512.03 154.124C511.373 153.466 511.044 152.444 511.044 151.056V135.717H491.652V151.056ZM586.539 155H568.79C567.403 155 566.38 154.708 565.723 154.124C565.138 153.466 564.846 152.444 564.846 151.056V137.032L548.084 114.572C546.404 112.308 545.272 110.336 544.687 108.656C544.176 106.976 543.92 104.456 543.92 101.097V80.0611C543.92 78.6733 544.213 77.6873 544.797 77.103C545.454 76.4456 546.477 76.1169 547.865 76.1169H564.737C566.124 76.1169 567.111 76.4456 567.695 77.103C568.352 77.6873 568.681 78.6733 568.681 80.0611V98.0289C568.681 98.7593 568.717 99.5262 568.79 100.33C568.863 101.133 569.156 101.9 569.667 102.63L574.707 110.519C575.072 111.176 575.437 111.651 575.802 111.943C576.241 112.235 576.752 112.381 577.336 112.381H578.432C579.016 112.381 579.491 112.235 579.856 111.943C580.294 111.651 580.696 111.176 581.061 110.519L586.101 102.63C586.612 101.9 586.904 101.133 586.977 100.33C587.05 99.5262 587.087 98.7593 587.087 98.0289V80.0611C587.087 78.6733 587.379 77.6873 587.963 77.103C588.621 76.4456 589.643 76.1169 591.031 76.1169H607.355C608.743 76.1169 609.729 76.4456 610.314 77.103C610.971 77.6873 611.3 78.6733 611.3 80.0611V101.097C611.3 104.456 611.007 106.976 610.423 108.656C609.839 110.336 608.743 112.308 607.136 114.572L590.483 137.142V151.056C590.483 152.444 590.155 153.466 589.497 154.124C588.913 154.708 587.927 155 586.539 155ZM697.405 155H648.98C647.592 155 646.569 154.708 645.912 154.124C645.328 153.466 645.036 152.444 645.036 151.056V137.799C645.036 136.411 645.328 135.425 645.912 134.841C646.569 134.184 647.592 133.855 648.98 133.855H661.25V97.262H651.171C649.783 97.262 648.761 96.9698 648.103 96.3855C647.519 95.7281 647.227 94.7056 647.227 93.3178V80.0611C647.227 78.6733 647.519 77.6873 648.103 77.103C648.761 76.4456 649.783 76.1169 651.171 76.1169H682.943C684.331 76.1169 685.317 76.4456 685.901 77.103C686.559 77.6873 686.887 78.6733 686.887 80.0611V133.855H697.405C698.793 133.855 699.779 134.184 700.363 134.841C701.021 135.425 701.349 136.411 701.349 137.799V151.056C701.349 152.444 701.021 153.466 700.363 154.124C699.779 154.708 698.793 155 697.405 155Z" fill="#FFF3EB"/>
<rect x="306" width="479" height="232" rx="31.4762" fill="#1C81CE"/>
<rect x="331" y="25" width="429" height="182" rx="12" fill="#1C0D03"/>
<path d="M426.425 155H389.504C388.116 155 387.093 154.708 386.436 154.124C385.852 153.466 385.56 152.444 385.56 151.056V80.0611C385.56 78.6733 385.852 77.6873 386.436 77.103C387.093 76.4456 388.116 76.1169 389.504 76.1169H426.425C435.555 76.1169 442.312 77.9429 446.694 81.5949C451.149 85.2469 453.377 90.871 453.377 98.4671V132.65C453.377 140.246 451.149 145.87 446.694 149.522C442.312 153.174 435.555 155 426.425 155ZM410.43 97.0428V134.293H423.467C425.22 134.293 426.498 133.855 427.302 132.978C428.178 132.102 428.617 130.751 428.617 128.925V102.302C428.617 100.476 428.178 99.161 427.302 98.3576C426.498 97.4811 425.22 97.0428 423.467 97.0428H410.43ZM495.897 99.1245L490.747 115.778H507.948L502.799 99.1245C502.507 98.4671 502.178 97.9924 501.813 97.7002C501.521 97.408 501.156 97.262 500.717 97.262H497.978C497.54 97.262 497.138 97.408 496.773 97.7002C496.481 97.9924 496.189 98.4671 495.897 99.1245ZM489.652 151.056C489.652 152.444 489.323 153.466 488.666 154.124C488.081 154.708 487.095 155 485.708 155H469.602C468.215 155 467.192 154.708 466.535 154.124C465.95 153.466 465.658 152.444 465.658 151.056V122.132C465.658 119.941 465.987 117.421 466.644 114.572C467.375 111.724 468.47 108.401 469.931 104.602L479.463 79.7324C479.901 78.4907 480.558 77.5777 481.435 76.9934C482.384 76.4091 483.589 76.1169 485.05 76.1169H514.522C515.91 76.1169 517.042 76.4091 517.918 76.9934C518.868 77.5777 519.562 78.4907 520 79.7324L529.532 104.602C530.992 108.401 532.051 111.724 532.709 114.572C533.439 117.421 533.804 119.941 533.804 122.132V151.056C533.804 152.444 533.476 153.466 532.818 154.124C532.234 154.708 531.248 155 529.86 155H513.317C511.856 155 510.76 154.708 510.03 154.124C509.373 153.466 509.044 152.444 509.044 151.056V135.717H489.652V151.056ZM584.539 155H566.79C565.403 155 564.38 154.708 563.723 154.124C563.138 153.466 562.846 152.444 562.846 151.056V137.032L546.084 114.572C544.404 112.308 543.272 110.336 542.687 108.656C542.176 106.976 541.92 104.456 541.92 101.097V80.0611C541.92 78.6733 542.213 77.6873 542.797 77.103C543.454 76.4456 544.477 76.1169 545.865 76.1169H562.737C564.124 76.1169 565.111 76.4456 565.695 77.103C566.352 77.6873 566.681 78.6733 566.681 80.0611V98.0289C566.681 98.7593 566.717 99.5262 566.79 100.33C566.863 101.133 567.156 101.9 567.667 102.63L572.707 110.519C573.072 111.176 573.437 111.651 573.802 111.943C574.241 112.235 574.752 112.381 575.336 112.381H576.432C577.016 112.381 577.491 112.235 577.856 111.943C578.294 111.651 578.696 111.176 579.061 110.519L584.101 102.63C584.612 101.9 584.904 101.133 584.977 100.33C585.05 99.5262 585.087 98.7593 585.087 98.0289V80.0611C585.087 78.6733 585.379 77.6873 585.963 77.103C586.621 76.4456 587.643 76.1169 589.031 76.1169H605.355C606.743 76.1169 607.729 76.4456 608.314 77.103C608.971 77.6873 609.3 78.6733 609.3 80.0611V101.097C609.3 104.456 609.007 106.976 608.423 108.656C607.839 110.336 606.743 112.308 605.136 114.572L588.483 137.142V151.056C588.483 152.444 588.155 153.466 587.497 154.124C586.913 154.708 585.927 155 584.539 155ZM698.254 155H646.103C644.715 155 643.693 154.708 643.036 154.124C642.451 153.466 642.159 152.444 642.159 151.056V132.212C642.159 127.975 642.561 124.506 643.364 121.803C644.241 119.028 645.446 116.764 646.98 115.011C648.514 113.258 650.34 111.87 652.458 110.847C654.576 109.825 656.877 108.948 659.36 108.218L674.041 103.616C675.21 103.324 675.977 102.886 676.342 102.302C676.78 101.717 676.999 100.841 676.999 99.6723C676.999 98.5767 676.78 97.8463 676.342 97.4811C675.903 97.0428 675.137 96.8237 674.041 96.8237H650.266C648.879 96.8237 647.856 96.5316 647.199 95.9472C646.614 95.2899 646.322 94.2673 646.322 92.8796V80.0611C646.322 78.6733 646.614 77.6873 647.199 77.103C647.856 76.4456 648.879 76.1169 650.266 76.1169H682.587C688.795 76.1169 693.543 77.6873 696.829 80.828C700.189 83.8957 701.869 88.3876 701.869 94.3038V104.602C701.869 110.08 700.335 114.28 697.268 117.202C694.2 120.123 690.037 122.388 684.778 123.995L669.878 128.706C668.782 128.998 668.015 129.326 667.577 129.692C667.212 130.057 667.029 130.824 667.029 131.992V134.293H698.254C699.641 134.293 700.627 134.622 701.212 135.279C701.869 135.864 702.198 136.85 702.198 138.237V151.056C702.198 152.444 701.869 153.466 701.212 154.124C700.627 154.708 699.641 155 698.254 155Z" fill="#FFF3EB"/>
</svg>
