<svg xmlns="http://www.w3.org/2000/svg" width="1090" height="232" fill="none" viewBox="0 0 1090 232"><rect width="18" height="1090" y="152" fill="#3B88C3" transform="rotate(-90 0 152)"/><rect width="19" height="1090" y="134" fill="#3774A3" transform="rotate(-90 0 134)"/><rect width="18" height="1090" y="115" fill="#FFE27B" transform="rotate(-90 0 115)"/><rect width="18" height="1090" y="97" fill="#1C5A7D" transform="rotate(-90 0 97)"/><rect width="479" height="232" x="306" fill="#1C81CE" rx="31.476"/><rect width="429" height="182" x="331" y="25" fill="#1C0D03" rx="12"/><path fill="#FFF3EB" d="M426.425 155H389.504C388.116 155 387.093 154.708 386.436 154.124C385.852 153.466 385.56 152.444 385.56 151.056V80.0611C385.56 78.6733 385.852 77.6873 386.436 77.103C387.093 76.4456 388.116 76.1169 389.504 76.1169H426.425C435.555 76.1169 442.312 77.9429 446.694 81.5949C451.149 85.2469 453.377 90.871 453.377 98.4671V132.65C453.377 140.246 451.149 145.87 446.694 149.522C442.312 153.174 435.555 155 426.425 155ZM410.43 97.0428V134.293H423.467C425.22 134.293 426.498 133.855 427.302 132.978C428.178 132.102 428.617 130.751 428.617 128.925V102.302C428.617 100.476 428.178 99.161 427.302 98.3576C426.498 97.4811 425.22 97.0428 423.467 97.0428H410.43ZM495.897 99.1245L490.747 115.778H507.948L502.799 99.1245C502.507 98.4671 502.178 97.9924 501.813 97.7002C501.521 97.408 501.156 97.262 500.717 97.262H497.978C497.54 97.262 497.138 97.408 496.773 97.7002C496.481 97.9924 496.189 98.4671 495.897 99.1245ZM489.652 151.056C489.652 152.444 489.323 153.466 488.666 154.124C488.081 154.708 487.095 155 485.708 155H469.602C468.215 155 467.192 154.708 466.535 154.124C465.95 153.466 465.658 152.444 465.658 151.056V122.132C465.658 119.941 465.987 117.421 466.644 114.572C467.375 111.724 468.47 108.401 469.931 104.602L479.463 79.7324C479.901 78.4907 480.558 77.5777 481.435 76.9934C482.384 76.4091 483.589 76.1169 485.05 76.1169H514.522C515.91 76.1169 517.042 76.4091 517.918 76.9934C518.868 77.5777 519.562 78.4907 520 79.7324L529.532 104.602C530.992 108.401 532.051 111.724 532.709 114.572C533.439 117.421 533.804 119.941 533.804 122.132V151.056C533.804 152.444 533.476 153.466 532.818 154.124C532.234 154.708 531.248 155 529.86 155H513.317C511.856 155 510.76 154.708 510.03 154.124C509.373 153.466 509.044 152.444 509.044 151.056V135.717H489.652V151.056ZM584.539 155H566.79C565.403 155 564.38 154.708 563.723 154.124C563.138 153.466 562.846 152.444 562.846 151.056V137.032L546.084 114.572C544.404 112.308 543.272 110.336 542.687 108.656C542.176 106.976 541.92 104.456 541.92 101.097V80.0611C541.92 78.6733 542.213 77.6873 542.797 77.103C543.454 76.4456 544.477 76.1169 545.865 76.1169H562.737C564.124 76.1169 565.111 76.4456 565.695 77.103C566.352 77.6873 566.681 78.6733 566.681 80.0611V98.0289C566.681 98.7593 566.717 99.5262 566.79 100.33C566.863 101.133 567.156 101.9 567.667 102.63L572.707 110.519C573.072 111.176 573.437 111.651 573.802 111.943C574.241 112.235 574.752 112.381 575.336 112.381H576.432C577.016 112.381 577.491 112.235 577.856 111.943C578.294 111.651 578.696 111.176 579.061 110.519L584.101 102.63C584.612 101.9 584.904 101.133 584.977 100.33C585.05 99.5262 585.087 98.7593 585.087 98.0289V80.0611C585.087 78.6733 585.379 77.6873 585.963 77.103C586.621 76.4456 587.643 76.1169 589.031 76.1169H605.355C606.743 76.1169 607.729 76.4456 608.314 77.103C608.971 77.6873 609.3 78.6733 609.3 80.0611V101.097C609.3 104.456 609.007 106.976 608.423 108.656C607.839 110.336 606.743 112.308 605.136 114.572L588.483 137.142V151.056C588.483 152.444 588.155 153.466 587.497 154.124C586.913 154.708 585.927 155 584.539 155ZM698.254 155H646.103C644.715 155 643.693 154.708 643.036 154.124C642.451 153.466 642.159 152.444 642.159 151.056V132.212C642.159 127.975 642.561 124.506 643.364 121.803C644.241 119.028 645.446 116.764 646.98 115.011C648.514 113.258 650.34 111.87 652.458 110.847C654.576 109.825 656.877 108.948 659.36 108.218L674.041 103.616C675.21 103.324 675.977 102.886 676.342 102.302C676.78 101.717 676.999 100.841 676.999 99.6723C676.999 98.5767 676.78 97.8463 676.342 97.4811C675.903 97.0428 675.137 96.8237 674.041 96.8237H650.266C648.879 96.8237 647.856 96.5316 647.199 95.9472C646.614 95.2899 646.322 94.2673 646.322 92.8796V80.0611C646.322 78.6733 646.614 77.6873 647.199 77.103C647.856 76.4456 648.879 76.1169 650.266 76.1169H682.587C688.795 76.1169 693.543 77.6873 696.829 80.828C700.189 83.8957 701.869 88.3876 701.869 94.3038V104.602C701.869 110.08 700.335 114.28 697.268 117.202C694.2 120.123 690.037 122.388 684.778 123.995L669.878 128.706C668.782 128.998 668.015 129.326 667.577 129.692C667.212 130.057 667.029 130.824 667.029 131.992V134.293H698.254C699.641 134.293 700.627 134.622 701.212 135.279C701.869 135.864 702.198 136.85 702.198 138.237V151.056C702.198 152.444 701.869 153.466 701.212 154.124C700.627 154.708 699.641 155 698.254 155Z"/></svg>